<svg width="98" height="79" viewBox="0 0 98 79" fill="none" xmlns="http://www.w3.org/2000/svg">
<path d="M89.0766 73.9165C89.6123 74.4817 89.9394 75.2542 89.9394 76.0273C89.9394 76.8005 89.6123 77.573 89.0766 78.1381C88.5114 78.6728 87.7377 79 86.9644 79C86.1906 79 85.4169 78.6728 84.8517 78.1381C84.316 77.573 83.9889 76.8004 83.9889 76.0273C83.9889 75.2542 84.316 74.4817 84.8517 73.9165C85.982 72.8167 87.9758 72.8167 89.0766 73.9165ZM47.2027 0.399681C48.1529 -0.133227 49.3144 -0.133227 50.2645 0.399681L95.8895 26.0016C97.9967 27.1838 97.9967 30.1968 95.8895 31.379L89.5173 34.9492L89.535 35.1612V66.1095C89.535 67.8147 88.1421 69.1975 86.4243 69.1975C84.8494 69.1975 83.5478 68.0361 83.3418 66.5283L83.3135 66.1095L83.3057 38.4369L77.3289 41.791L77.3295 64.0774C77.3295 65.1381 76.7231 66.1071 75.7658 66.5766C58.748 74.9228 38.7196 74.9228 21.7032 66.5766C20.8654 66.1658 20.2963 65.3725 20.1673 64.4703L20.1395 64.0774L20.1361 41.791L1.58026 31.3794C-0.386261 30.2756 -0.517419 27.5777 1.18697 26.2618L1.58026 26.002L47.2027 0.399681ZM71.7099 44.9431L50.2645 56.9815C49.3144 57.5145 48.1529 57.5145 47.2027 56.9815L25.7531 44.9431L25.752 62.3065L27.1177 62.9091C40.9168 68.7106 56.5522 68.7106 70.3516 62.9091L71.7134 62.3065L71.7099 44.9431ZM48.7336 6.63387L9.43023 28.6888L48.7336 50.7407L77.0759 34.8359L53.5471 25.658C52.0812 25.0864 51.298 23.5321 51.6613 22.0543L51.7892 21.6539C52.365 20.1987 53.9303 19.4208 55.4189 19.7816L55.8222 19.9089L84.0534 30.9173L88.0324 28.69L48.7336 6.63387Z" fill="#002C38"/>
</svg>
