<?xml version="1.0" encoding="utf-8"?>
<!-- Generator: Adobe Illustrator 26.5.0, SVG Export Plug-In . SVG Version: 6.00 Build 0)  -->
<svg version="1.1" id="Layer_1" xmlns="http://www.w3.org/2000/svg" xmlns:xlink="http://www.w3.org/1999/xlink" x="0px" y="0px"
	 viewBox="0 0 34.3 39.1" style="enable-background:new 0 0 34.3 39.1;" xml:space="preserve">
<style type="text/css">
	.st0{fill:#010101;}
</style>
<g>
	<path class="st0" d="M4.7,21.9c0-5,0-10.1,0-15.1c0-2.5-0.5-4.8-3.7-5c-0.7,0-1.1-0.4-1-1.1C0.2-0.2,0.9,0,1.4,0C6.2,0,11,0,15.9,0
		c3.2,0,6.5,0,9.7,0c4.2,0.1,5.6,1.4,5.5,5.5c0,1.4,0.9,3.9-0.7,4.2c-2.1,0.4-0.9-2.2-1.6-3.4c-1.2-1.9-2.7-3.2-4.9-3.3
		c-3.3-0.2-6.7-0.1-10-0.2c-1.3,0-1.4,0.7-1.4,1.7c0,3.8,0.1,7.5,0,11.2c0,1.6,0.7,1.7,2,1.7c3.7-0.1,7.5,0,11.2,0
		c1,0,2.2-0.4,2.2,1.4c0,1.9-1.4,1.3-2.3,1.3c-3.6,0.1-7.3,0.1-10.9,0c-1.5,0-2.3,0.2-2.2,2c0.1,4,0.1,8.1,0,12.1
		c-0.1,1.7,0.6,2.2,2.2,2.1c2.6-0.1,5.1,0,7.7,0c4.1,0,7.2-1.6,9-5.5c0.2-0.5,0.2-1.5,1.3-1c0.9,0.4,0.7,0.9,0.4,1.6
		c-0.6,1.4-1.1,2.9-1.7,4.4c-0.9,2.2-2.4,3.2-4.8,3.2c-6.6,0-13.2-0.1-19.8,0c-1.7,0-2.1-0.6-2.1-2.2C4.8,31.9,4.7,26.9,4.7,21.9
		C4.7,21.9,4.7,21.9,4.7,21.9z"/>
</g>
</svg>
