<svg width="29" height="29" viewBox="0 0 29 29" fill="none" xmlns="http://www.w3.org/2000/svg">
<g clip-path="url(#clip0_218_1413)">
<path fill-rule="evenodd" clip-rule="evenodd" d="M24.1667 25.7778H4.83333C3.94722 25.7778 3.22222 25.0528 3.22222 24.1667V4.83333C3.22222 3.94722 3.94722 3.22222 4.83333 3.22222H12.8889C13.775 3.22222 14.5 2.49722 14.5 1.61111C14.5 0.725 13.775 0 12.8889 0H3.22222C1.43389 0 0 1.45 0 3.22222V25.7778C0 27.55 1.45 29 3.22222 29H25.7778C27.55 29 29 27.55 29 25.7778V16.1111C29 15.225 28.275 14.5 27.3889 14.5C26.5028 14.5 25.7778 15.225 25.7778 16.1111V24.1667C25.7778 25.0528 25.0528 25.7778 24.1667 25.7778ZM17.7222 1.61111C17.7222 2.49722 18.4472 3.22222 19.3333 3.22222H23.5061L8.79667 17.9317C8.16833 18.56 8.16833 19.575 8.79667 20.2033C9.425 20.8317 10.44 20.8317 11.0683 20.2033L25.7778 5.49389V9.66667C25.7778 10.5528 26.5028 11.2778 27.3889 11.2778C28.275 11.2778 29 10.5528 29 9.66667V1.61111C29 0.725 28.275 0 27.3889 0H19.3333C18.4472 0 17.7222 0.725 17.7222 1.61111Z" fill="#002C38"/>
</g>
<defs>
<clipPath id="clip0_218_1413">
<rect width="29" height="29" fill="white"/>
</clipPath>
</defs>
</svg>
