<svg width="48" height="49" viewBox="0 0 48 49" fill="none" xmlns="http://www.w3.org/2000/svg">
<g clip-path="url(#clip0_223_341)">
<path d="M24 0.470703C10.75 0.470703 0 11.277 0 24.5964C0 36.6893 8.86 46.6814 20.41 48.4204V30.9897H14.47V24.6466H20.41V20.4246C20.41 13.4382 23.8 10.3723 29.57 10.3723C32.34 10.3723 33.8 10.5834 34.49 10.6738V16.2127H30.55C28.1 16.2127 27.24 18.5549 27.24 21.1886V24.6567H34.43L33.46 30.9997H27.25V48.4808C38.96 46.8824 48 36.82 48 24.6064C48 11.277 37.25 0.470703 24 0.470703Z" fill="#002C38"/>
</g>
<defs>
<clipPath id="clip0_223_341">
<rect width="48" height="48" fill="white" transform="translate(0 0.470703)"/>
</clipPath>
</defs>
</svg>
