<?xml version="1.0" encoding="UTF-8"?><svg id="Layer_2" xmlns="http://www.w3.org/2000/svg" viewBox="0 0 109.75 144.15"><defs><style>.cls-1{fill-rule:evenodd;}</style></defs><g id="Layer_1_copy"><g><path class="cls-1" d="M54.9,136.55c-13.4-.33-24.55-4.95-33.45-13.85-8.9-8.9-13.52-20.05-13.85-33.45v-.05c.14-9.7,2.77-18.4,7.9-26.1l12.5,21.85c2.8,4.63,5.41,10.58,7.85,17.85,2.47,7.27,4.14,16.3,5,27.1,4.43,1.53,9.12,2.32,14.05,2.35,4.84-.03,9.43-.8,13.8-2.3,.97-11.9,2.8-21.6,5.5-29.1,2.7-7.46,5.58-13.54,8.65-18.2l11.2-19.9c5.27,7.8,7.96,16.62,8.1,26.45v.05c-.33,13.4-4.95,24.55-13.85,33.45-8.9,8.9-20.04,13.52-33.4,13.85m22.75-97.2c-1.66-5.87-5.85-9.04-12.55-9.5-.03,0-.82,.01-2.35,.05v5.15h-7.6v3.55h7.6v6.3h-7.6v3.55h7.6v5.15c1.53,.04,2.32,.05,2.35,.05,5.2-.23,9-2.38,11.4-6.45,4.2,2.16,7.96,4.86,11.3,8.1l-18.35,25.15c-4.27,5.7-9.21,8.6-14.85,8.7-5.63-.1-10.58-3-14.85-8.7l-18.1-24.8c3.4-3.37,7.28-6.18,11.65-8.45,2.36,4.07,6.16,6.21,11.4,6.45,0-.04,.77-.05,2.3-.05V29.9c-1.54-.04-2.3-.05-2.3-.05-6.7,.46-10.9,3.63-12.6,9.5-9.9,4.63-17.7,11.37-23.4,20.2C3,68.39,.1,78.29,0,89.25c.4,15.53,5.76,28.47,16.1,38.8,10.33,10.34,23.27,15.7,38.8,16.1,15.53-.4,28.45-5.77,38.75-16.1,10.34-10.33,15.7-23.27,16.1-38.8-.1-10.97-3-20.86-8.7-29.7-5.7-8.83-13.5-15.57-23.4-20.2"/><path class="cls-1" d="M43.6,72.55c.07,3.2,1.17,5.87,3.3,8,2.13,2.13,4.78,3.23,7.95,3.3,3.2-.07,5.87-1.17,8-3.3,2.14-2.13,3.23-4.8,3.3-8-.07-3.16-1.16-5.82-3.3-7.95-2.13-2.13-4.8-3.24-8-3.3-3.17,.07-5.82,1.17-7.95,3.3-2.13,2.13-3.23,4.79-3.3,7.95"/><polyline class="cls-1" points="90.35 0 68.45 12.85 72.45 14.75 59.95 27.25 81.85 14.45 77.85 12.5 90.35 0"/><polyline class="cls-1" points="41.95 12.85 20.05 0 32.55 12.5 28.55 14.45 50.45 27.25 37.95 14.75 41.95 12.85"/></g></g></svg>