<svg width="81" height="103" viewBox="0 0 81 103" fill="none" xmlns="http://www.w3.org/2000/svg">
<path d="M18.7448 1.44962C23.4478 -2.36135 30.3371 1.89713 28.9885 7.78154L25.9481 21.0483C25.2864 23.9353 22.7064 25.9831 19.7309 25.9831L6.39953 25.9831C0.399253 25.9831 -2.27981 18.4867 2.37302 14.7164L18.7448 1.44962Z" fill="#002C38"/>
<path fill-rule="evenodd" clip-rule="evenodd" d="M57.5699 5.13818H22.3883V0.0200927H57.5699C66.0486 0.0200927 72.9219 6.89443 72.9219 15.3744V79.3505C72.9219 87.8304 66.0486 94.7048 57.5699 94.7048H15.352C6.87331 94.7048 0 87.8304 0 79.3505V19.866H5.11733V79.3505C5.11733 85.0038 9.69954 89.5867 15.352 89.5867H57.5699C63.2224 89.5867 67.8046 85.0038 67.8046 79.3505V15.3744C67.8046 9.72108 63.2224 5.13818 57.5699 5.13818Z" fill="#002C38"/>
<path fill-rule="evenodd" clip-rule="evenodd" d="M68.4077 13.4334V8.31534C76.8864 8.31534 81 15.1897 81 23.6696V87.6457C81 96.1257 74.1267 103 65.648 103H23.4301C14.9514 103 8.07808 99.4936 8.07808 91.0137V92.5454H13.1954V91.0137C13.1954 96.667 17.7776 97.8819 23.4301 97.8819H65.648C71.3005 97.8819 75.8827 93.299 75.8827 87.6457V23.6696C75.8827 18.0163 74.0602 13.4334 68.4077 13.4334Z" fill="#002C38"/>
<path fill-rule="evenodd" clip-rule="evenodd" d="M13.1954 37.7968C13.1954 35.8883 14.7501 34.3411 16.6679 34.3411H56.2541C58.1719 34.3411 59.7265 35.8883 59.7265 37.7968C59.7265 39.7053 58.1719 41.2524 56.2541 41.2524H16.6679C14.7501 41.2524 13.1954 39.7053 13.1954 37.7968Z" fill="#002C38"/>
<path fill-rule="evenodd" clip-rule="evenodd" d="M13.1954 77.1911C13.1954 75.2826 14.7501 73.7355 16.6679 73.7355H56.2541C58.1719 73.7355 59.7265 75.2826 59.7265 77.1911C59.7265 79.0996 58.1719 80.6468 56.2541 80.6468H16.6679C14.7501 80.6468 13.1954 79.0996 13.1954 77.1911Z" fill="#002C38"/>
<path fill-rule="evenodd" clip-rule="evenodd" d="M13.1954 50.9282C13.1954 49.0197 14.7501 47.4726 16.6679 47.4726H25.6963C27.6141 47.4726 29.1688 49.0197 29.1688 50.9282C29.1688 52.8367 27.6141 54.3839 25.6963 54.3839H16.6679C14.7501 54.3839 13.1954 52.8367 13.1954 50.9282Z" fill="#002C38"/>
<path fill-rule="evenodd" clip-rule="evenodd" d="M32.6413 50.9282C32.6413 49.0197 34.1959 47.4726 36.1137 47.4726H56.2541C58.1719 47.4726 59.7265 49.0197 59.7265 50.9282C59.7265 52.8367 58.1719 54.3839 56.2541 54.3839H36.1137C34.1959 54.3839 32.6413 52.8367 32.6413 50.9282Z" fill="#002C38"/>
<path fill-rule="evenodd" clip-rule="evenodd" d="M43.7532 64.0597C43.7532 62.1512 45.3078 60.604 47.2256 60.604H56.2541C58.1719 60.604 59.7265 62.1512 59.7265 64.0597C59.7265 65.9682 58.1719 67.5153 56.2541 67.5153H47.2256C45.3078 67.5153 43.7532 65.9682 43.7532 64.0597Z" fill="#002C38"/>
<path fill-rule="evenodd" clip-rule="evenodd" d="M13.1954 64.0597C13.1954 62.1512 14.7501 60.604 16.6679 60.604H36.8082C38.726 60.604 40.2807 62.1512 40.2807 64.0597C40.2807 65.9682 38.726 67.5153 36.8082 67.5153H16.6679C14.7501 67.5153 13.1954 65.9682 13.1954 64.0597Z" fill="#002C38"/>
</svg>
