<svg width="85" height="89" viewBox="0 0 85 89" fill="none" xmlns="http://www.w3.org/2000/svg">
<path d="M82.1449 54.0241L78.1264 51.7355C78.6397 49.3146 78.8989 46.8398 78.8989 44.353C78.8989 41.8662 78.6389 39.3914 78.1264 36.9705L82.1449 34.6819C83.4622 33.9314 84.4063 32.7157 84.802 31.2598C85.1976 29.8039 84.9961 28.2866 84.2355 26.9852L78.6113 17.371C77.8507 16.0711 76.6188 15.1394 75.1435 14.7489C73.6681 14.3585 72.1305 14.5574 70.8118 15.3079L66.7879 17.6001C63.0272 14.2742 58.6129 11.7556 53.836 10.211V5.63531C53.836 2.52897 51.2742 0.000739435 48.1262 0.000739435L36.8753 0C33.7275 0 31.1655 2.52804 31.1655 5.63457V10.2102C26.3872 11.7549 21.9722 14.2727 18.2123 17.5994L14.1892 15.3072C11.4632 13.7536 7.96318 14.6787 6.38889 17.3701L0.764632 26.9842C-0.80966 29.6743 0.127721 33.1274 2.85512 34.6818L6.87363 36.9703C6.36034 39.3912 6.1011 41.8661 6.1011 44.3529C6.1011 46.8396 6.36111 49.3145 6.87363 51.7354L2.85512 54.024C1.53783 54.7745 0.593719 55.9902 0.197988 57.446C-0.197648 58.902 0.00391916 60.4193 0.76446 61.7207L6.38872 71.3348C7.14926 72.6348 8.38118 73.5664 9.85649 73.957C11.3318 74.3475 12.8695 74.1485 14.1882 73.3979L18.2121 71.1058C21.9728 74.4317 26.3871 76.9503 31.164 78.4949V83.0706C31.164 86.1769 33.7258 88.7051 36.8738 88.7051H48.1233C51.2711 88.7051 53.8331 86.1771 53.8331 83.0706V78.4949C58.6122 76.9502 63.0264 74.4324 66.7864 71.1058L70.8095 73.3979C72.1268 74.1485 73.6659 74.3474 75.1412 73.957C76.6166 73.5665 77.8477 72.6348 78.609 71.3348L84.2333 61.7207C85.809 59.0314 84.8709 55.5792 82.1449 54.0241ZM79.3694 58.9501L73.7444 68.5643C73.7399 68.5717 73.7279 68.5924 73.6874 68.6035C73.647 68.6145 73.626 68.6027 73.6185 68.5983L67.7769 65.2701C66.6709 64.6408 65.2734 64.8257 64.3759 65.7211C60.4899 69.5966 55.6262 72.3701 50.3135 73.7418C49.0779 74.0612 48.2153 75.163 48.2153 76.423V83.0712C48.2153 83.1148 48.1674 83.1621 48.1232 83.1621L36.8752 83.1614C36.831 83.1614 36.7831 83.1141 36.7831 83.0705V76.4222C36.7831 75.1622 35.9206 74.0598 34.6849 73.741C29.3731 72.3694 24.5108 69.5958 20.6225 65.7204C20.0808 65.1806 19.3562 64.8981 18.6257 64.8981C18.1446 64.8981 17.6613 65.0194 17.2229 65.2693L11.3814 68.5975C11.3739 68.602 11.3529 68.6138 11.3124 68.6027C11.272 68.5916 11.26 68.5716 11.2555 68.5635L5.63122 58.9494C5.62672 58.942 5.61473 58.9213 5.62597 58.8814C5.63721 58.8414 5.65744 58.8296 5.66568 58.8252L11.5006 55.5013C12.6058 54.8721 13.1416 53.5855 12.8059 52.3706C12.0858 49.767 11.7209 47.0695 11.7209 44.3522C11.7209 41.6362 12.0858 38.938 12.8059 36.3338C13.1416 35.1189 12.605 33.8331 11.5006 33.2031L5.66568 29.8792C5.62747 29.8578 5.60949 29.7927 5.63196 29.755L11.2562 20.1409C11.278 20.1032 11.3439 20.0854 11.3814 20.1076L17.2229 23.4358C18.3289 24.0651 19.7257 23.8802 20.624 22.9848C24.5107 19.1093 29.3736 16.3358 34.6863 14.9641C35.9219 14.6447 36.7845 13.5429 36.7845 12.2829V5.6347C36.7845 5.59107 36.8325 5.54375 36.8767 5.54375H48.1261C48.1703 5.54375 48.2183 5.59107 48.2183 5.6347V12.2829C48.2183 13.5429 49.0808 14.6454 50.3165 14.9641C55.6282 16.3358 60.4906 19.1093 64.3788 22.9848C65.2765 23.8802 66.674 24.0651 67.7799 23.4358L73.6214 20.1076C73.6289 20.1032 73.6499 20.0914 73.6904 20.1024C73.7308 20.1135 73.7428 20.1335 73.7473 20.1416L79.3716 29.7558C79.3761 29.7631 79.3881 29.7839 79.3768 29.8238C79.3656 29.8637 79.3454 29.8755 79.3371 29.88L73.5022 33.2038C72.397 33.8331 71.8613 35.1197 72.1969 36.3346C72.917 38.9381 73.2819 41.6356 73.2819 44.3529C73.2819 47.069 72.917 49.7672 72.1969 52.3713C71.8605 53.5862 72.3978 54.8721 73.5022 55.5021L79.3371 58.8259C79.3746 58.8474 79.3911 58.9117 79.3694 58.9501ZM42.4991 24.3886C31.3441 24.3886 22.2675 33.3445 22.2675 44.3536C22.2675 55.3615 31.343 64.3186 42.4991 64.3186C53.6539 64.3186 62.7306 55.3626 62.7306 44.3536C62.7306 33.3457 53.6543 24.3886 42.4991 24.3886ZM42.4991 58.7741C34.4417 58.7741 27.8852 52.3047 27.8852 44.3528C27.8852 36.4017 34.4409 29.9315 42.4991 29.9315C50.5564 29.9315 57.1129 36.4017 57.1129 44.3528C57.1129 52.304 50.5564 58.7741 42.4991 58.7741Z" fill="#002C38"/>
</svg>
