<svg width="261" height="87" viewBox="0 0 261 87" fill="none" xmlns="http://www.w3.org/2000/svg">
<g clip-path="url(#clip0_382_346)">
<path fill-rule="evenodd" clip-rule="evenodd" d="M33.015 82.4131C24.9567 82.214 18.2515 79.4256 12.8993 74.0541C7.54715 68.6826 4.76884 61.9532 4.57039 53.8658V53.8356C4.65458 47.9813 6.23617 42.7305 9.32118 38.0833L16.8383 51.2706C18.5221 54.0649 20.0917 57.656 21.559 62.0437C23.0444 66.4314 24.0487 71.8814 24.5658 78.3996C27.2299 79.323 30.0503 79.7998 33.015 79.8179C35.9257 79.7998 38.6859 79.3351 41.3139 78.4298C41.8972 71.2477 42.9977 65.3934 44.6214 60.8668C46.2451 56.3644 47.977 52.6949 49.8232 49.8824L56.5585 37.872C59.7277 42.5796 61.3454 47.9028 61.4296 53.8356V53.8658C61.2312 61.9532 58.4529 68.6826 53.1007 74.0541C47.7485 79.4256 41.0493 82.214 33.015 82.4131M46.6961 23.7492C45.6979 20.2065 43.1781 18.2933 39.149 18.0156C39.1309 18.0156 38.6559 18.0217 37.7358 18.0458V21.154H33.1654V23.2966H37.7358V27.0989H33.1654V29.2414H37.7358V32.3497C38.6559 32.3738 39.1309 32.3798 39.149 32.3798C42.2761 32.241 44.5613 30.9434 46.0046 28.487C48.5303 29.7907 50.7914 31.4202 52.8 33.3757L41.7649 48.5546C39.1971 51.9948 36.2263 53.7451 32.8346 53.8054C29.4489 53.7451 26.4722 51.9948 23.9043 48.5546L13.0196 33.5869C15.0642 31.553 17.3975 29.857 20.0255 28.487C21.4447 30.9434 23.7299 32.235 26.8811 32.3798C26.8811 32.3557 27.3441 32.3497 28.2642 32.3497V18.0458C27.3381 18.0217 26.8811 18.0156 26.8811 18.0156C22.8519 18.2933 20.3262 20.2065 19.3039 23.7492C13.3503 26.5436 8.65968 30.6115 5.23189 35.9407C1.8041 41.276 0.0601367 47.251 0 53.8658C0.240547 63.2387 3.46387 71.0485 9.68201 77.2831C15.8941 83.5236 23.6758 86.7586 33.015 87C42.3543 86.7586 50.1239 83.5176 56.318 77.2831C62.5361 71.0485 65.7595 63.2387 66 53.8658C65.9399 47.245 64.1959 41.276 60.7681 35.9407C57.3403 30.6115 52.6497 26.5436 46.6961 23.7492" fill="#002C38"/>
<path fill-rule="evenodd" clip-rule="evenodd" d="M26.2197 43.7869C26.2618 45.7182 26.9233 47.3296 28.2042 48.6152C29.4851 49.9007 31.0788 50.5646 32.9851 50.6069C34.9095 50.5646 36.5151 49.9007 37.796 48.6152C39.083 47.3296 39.7385 45.7182 39.7805 43.7869C39.7385 41.8797 39.083 40.2743 37.796 38.9887C36.5151 37.7032 34.9095 37.0333 32.9851 36.9971C31.0788 37.0393 29.4851 37.7032 28.2042 38.9887C26.9233 40.2743 26.2618 41.8797 26.2197 43.7869" fill="#002C38"/>
<path fill-rule="evenodd" clip-rule="evenodd" d="M54.3333 0L41.1634 7.75546L43.5688 8.90219L36.0518 16.4464L49.2217 8.72112L46.8162 7.54423L54.3333 0Z" fill="#FFC223"/>
<path fill-rule="evenodd" clip-rule="evenodd" d="M25.2275 7.75546L12.0576 0L19.5747 7.54423L17.1692 8.72112L30.3392 16.4464L22.8221 8.90219L25.2275 7.75546Z" fill="#FFC223"/>
</g>
<path d="M88.656 44H93.84V21.6H88.656V44ZM114.58 21.6V35.2L103.444 21.6H99.156V44H104.276V30.4L115.444 44H119.7V21.6H114.58ZM129.64 44H134.824V25.824H141.992V21.6H122.472V25.824H129.64V44ZM149.933 39.84V34.656H160.333V30.624H149.933V25.76H161.709V21.6H144.781V44H162.125V39.84H149.933ZM186.09 44L181.066 36.8C183.978 35.552 185.674 33.088 185.674 29.728C185.674 24.704 181.93 21.6 175.946 21.6H166.25V44H171.434V37.76H175.946H176.202L180.522 44H186.09ZM180.426 29.728C180.426 32.16 178.826 33.632 175.658 33.632H171.434V25.824H175.658C178.826 25.824 180.426 27.264 180.426 29.728ZM206.517 44H211.957L201.941 21.6H196.821L186.837 44H192.149L194.133 39.2H204.533L206.517 44ZM195.797 35.264L199.349 26.688L202.901 35.264H195.797ZM224.689 44.384C228.593 44.384 231.825 42.976 233.937 40.384L230.609 37.312C229.105 39.072 227.217 39.968 224.977 39.968C220.785 39.968 217.809 37.024 217.809 32.8C217.809 28.576 220.785 25.632 224.977 25.632C227.217 25.632 229.105 26.528 230.609 28.256L233.937 25.184C231.825 22.624 228.593 21.216 224.721 21.216C217.745 21.216 212.561 26.048 212.561 32.8C212.561 39.552 217.745 44.384 224.689 44.384ZM241.859 44H247.043V25.824H254.211V21.6H234.691V25.824H241.859V44ZM94.352 78.776L99.504 73.912C102.64 71 103.248 69.016 103.248 66.84C103.248 62.776 99.92 60.216 94.928 60.216C90.896 60.216 87.76 61.848 86.032 64.376L89.808 66.808C90.896 65.304 92.528 64.568 94.448 64.568C96.816 64.568 98.032 65.592 98.032 67.352C98.032 68.44 97.68 69.592 95.696 71.48L87.056 79.64V83H103.984V78.776H94.352ZM115.661 83.384C121.197 83.384 125.261 79.192 125.261 71.8C125.261 64.408 121.197 60.216 115.661 60.216C110.157 60.216 106.061 64.408 106.061 71.8C106.061 79.192 110.157 83.384 115.661 83.384ZM115.661 79C113.101 79 111.309 76.888 111.309 71.8C111.309 66.712 113.101 64.6 115.661 64.6C118.253 64.6 120.045 66.712 120.045 71.8C120.045 76.888 118.253 79 115.661 79ZM134.696 78.776L139.848 73.912C142.984 71 143.592 69.016 143.592 66.84C143.592 62.776 140.264 60.216 135.272 60.216C131.24 60.216 128.104 61.848 126.376 64.376L130.152 66.808C131.24 65.304 132.872 64.568 134.792 64.568C137.16 64.568 138.376 65.592 138.376 67.352C138.376 68.44 138.024 69.592 136.04 71.48L127.4 79.64V83H144.328V78.776H134.696ZM156.931 69.72L161.987 63.96V60.6H146.307V64.76H155.843L151.235 69.976V73.4H153.603C156.547 73.4 157.795 74.456 157.795 76.152C157.795 77.976 156.195 79.032 153.603 79.032C151.267 79.032 148.899 78.296 147.203 77.016L145.187 80.984C147.363 82.52 150.595 83.384 153.731 83.384C160.099 83.384 163.011 79.928 163.011 76.152C163.011 72.856 160.963 70.36 156.931 69.72Z" fill="#002C38"/>
<defs>
<clipPath id="clip0_382_346">
<rect width="66" height="87" fill="white"/>
</clipPath>
</defs>
</svg>
