<svg width="48" height="48" viewBox="0 0 48 48" fill="none" xmlns="http://www.w3.org/2000/svg">
<g clip-path="url(#clip0_223_337)">
<path d="M24 0C10.745 0 0 10.745 0 24C0 37.255 10.745 48 24 48C37.255 48 48 37.255 48 24C48 10.745 37.255 0 24 0ZM16.8 36H12V18H16.8V36ZM14.39 15.6H14.36C12.925 15.6 12 14.53 12 13.2C12 11.87 12.955 10.8 14.41 10.8C15.865 10.8 16.77 11.84 16.8 13.2C16.8 14.53 15.875 15.6 14.39 15.6ZM37.2 36H32.4V26.4C32.4 24.415 30.785 22.8 28.8 22.8C26.815 22.8 25.2 24.415 25.2 26.4V36H20.4V18H25.2V20.815C26.395 19.115 28.37 18 30.6 18C34.25 18 37.2 20.95 37.2 24.6V36Z" fill="#002C38"/>
</g>
<defs>
<clipPath id="clip0_223_337">
<rect width="48" height="48" fill="white"/>
</clipPath>
</defs>
</svg>
