<svg width="66" height="87" viewBox="0 0 66 87" fill="none" xmlns="http://www.w3.org/2000/svg">
<g clip-path="url(#clip0_223_231)">
<path fill-rule="evenodd" clip-rule="evenodd" d="M33.015 82.4131C24.9567 82.214 18.2515 79.4256 12.8993 74.0541C7.54715 68.6826 4.76884 61.9532 4.57039 53.8658V53.8356C4.65458 47.9813 6.23617 42.7305 9.32119 38.0833L16.8383 51.2706C18.5221 54.0649 20.0917 57.656 21.559 62.0437C23.0444 66.4314 24.0487 71.8814 24.5658 78.3996C27.2299 79.323 30.0503 79.7998 33.015 79.8179C35.9257 79.7998 38.6859 79.3351 41.3139 78.4298C41.8972 71.2477 42.9977 65.3934 44.6214 60.8668C46.2451 56.3644 47.977 52.6949 49.8232 49.8824L56.5585 37.872C59.7277 42.5796 61.3454 47.9028 61.4296 53.8356V53.8658C61.2312 61.9532 58.4529 68.6826 53.1007 74.0541C47.7485 79.4256 41.0493 82.214 33.015 82.4131ZM46.6961 23.7492C45.6979 20.2065 43.1781 18.2933 39.149 18.0156C39.1309 18.0156 38.6559 18.0217 37.7358 18.0458V21.154H33.1654V23.2966H37.7358V27.0989H33.1654V29.2414H37.7358V32.3497C38.6559 32.3738 39.1309 32.3798 39.149 32.3798C42.2761 32.241 44.5613 30.9434 46.0046 28.487C48.5303 29.7907 50.7914 31.4202 52.8 33.3757L41.7649 48.5546C39.1971 51.9948 36.2263 53.7451 32.8346 53.8054C29.4489 53.7451 26.4722 51.9948 23.9043 48.5546L13.0196 33.5869C15.0642 31.553 17.3975 29.857 20.0255 28.487C21.4447 30.9434 23.7299 32.235 26.8811 32.3798C26.8811 32.3557 27.3441 32.3497 28.2642 32.3497V18.0458C27.3381 18.0217 26.8811 18.0156 26.8811 18.0156C22.8519 18.2933 20.3262 20.2065 19.3039 23.7492C13.3503 26.5436 8.65968 30.6115 5.23189 35.9407C1.8041 41.276 0.0601367 47.251 0 53.8658C0.240547 63.2387 3.46387 71.0485 9.682 77.2831C15.8941 83.5236 23.6758 86.7586 33.015 87C42.3543 86.7586 50.1239 83.5176 56.318 77.2831C62.5361 71.0485 65.7595 63.2387 66 53.8658C65.9399 47.245 64.1959 41.276 60.7681 35.9407C57.3403 30.6115 52.6497 26.5436 46.6961 23.7492Z" fill="#002C38"/>
<path fill-rule="evenodd" clip-rule="evenodd" d="M26.2188 43.7869C26.2608 45.7182 26.9224 47.3296 28.2033 48.6152C29.4842 49.9007 31.0778 50.5646 32.9841 50.6069C34.9085 50.5646 36.5141 49.9007 37.7951 48.6152C39.082 47.3296 39.7375 45.7182 39.7796 43.7869C39.7375 41.8797 39.082 40.2743 37.7951 38.9887C36.5141 37.7032 34.9085 37.0333 32.9841 36.9971C31.0778 37.0393 29.4842 37.7032 28.2033 38.9887C26.9224 40.2743 26.2608 41.8797 26.2188 43.7869Z" fill="#002C38"/>
<path fill-rule="evenodd" clip-rule="evenodd" d="M54.3343 0L41.1643 7.75546L43.5698 8.90219L36.0527 16.4464L49.2227 8.72112L46.8172 7.54423L54.3343 0Z" fill="#FFC223"/>
<path fill-rule="evenodd" clip-rule="evenodd" d="M25.2266 7.75546L12.0566 0L19.5737 7.54423L17.1683 8.72112L30.3382 16.4464L22.8211 8.90219L25.2266 7.75546Z" fill="#FFC223"/>
</g>
<defs>
<clipPath id="clip0_223_231">
<rect width="66" height="87" fill="white"/>
</clipPath>
</defs>
</svg>
