<svg width="86" height="109" viewBox="0 0 86 109" fill="none" xmlns="http://www.w3.org/2000/svg">
<path fill-rule="evenodd" clip-rule="evenodd" d="M19.8805 1.53407C21.3429 0.338951 23.0069 -0.106264 24.5876 0.020973H60.6227C66.9784 0.020973 72.4745 3.73309 75.0959 9.12497C81.8977 10.6307 85.21 17.1877 85.21 25.0485V92.7513C85.21 101.725 77.9972 109 69.0999 109H24.7972C16.6073 109 9.84488 105.856 8.82115 98.3572C3.7008 95.6362 0.209961 90.2155 0.209961 83.9725V21.0229H0.227356C0.139735 19.0678 0.892862 17.0506 2.7002 15.5736L19.8805 1.53407ZM15.0158 100.169C16.7056 102.893 20.4497 103.584 24.7972 103.584H69.0999C75.0314 103.584 79.8399 98.7339 79.8399 92.7513V25.0485C79.8399 21.0939 79.0043 17.6342 76.7245 15.7431C76.73 15.9179 76.7328 16.0935 76.7328 16.2697V83.9725C76.7328 92.9464 69.5201 100.221 60.6227 100.221H16.32C15.881 100.221 15.446 100.203 15.0158 100.169ZM30.63 8.23482C30.8537 7.25029 30.8614 6.30877 30.6962 5.4372H60.6227C66.5543 5.4372 71.3628 10.2871 71.3628 16.2697V83.9725C71.3628 89.9551 66.5543 94.8049 60.6227 94.8049H16.32C10.3885 94.8049 5.57999 89.9551 5.57999 83.9725V27.3699C6.00806 27.4528 6.45716 27.4967 6.92554 27.4967L20.9152 27.4967C24.0377 27.4967 26.7451 25.3295 27.4394 22.2744L30.63 8.23482ZM14.057 65.597C14.057 63.5773 15.6884 61.9401 17.7009 61.9401H27.1752C29.1877 61.9401 30.8191 63.5773 30.8191 65.597C30.8191 67.6167 29.1877 69.2539 27.1752 69.2539H17.7009C15.6884 69.2539 14.057 67.6167 14.057 65.597ZM38.107 61.9401C36.0945 61.9401 34.463 63.5773 34.463 65.597C34.463 67.6167 36.0945 69.2539 38.107 69.2539H59.2419C61.2544 69.2539 62.8858 67.6167 62.8858 65.597C62.8858 63.5773 61.2544 61.9401 59.2419 61.9401H38.107ZM34.463 79.7194C34.463 77.6998 36.0945 76.0625 38.107 76.0625H59.2419C61.2544 76.0625 62.8858 77.6998 62.8858 79.7194C62.8858 81.7391 61.2544 83.3764 59.2419 83.3764H38.107C36.0945 83.3764 34.463 81.7391 34.463 79.7194ZM17.7009 48.2697C15.6884 48.2697 14.057 49.907 14.057 51.9267C14.057 53.9464 15.6884 55.5836 17.7009 55.5836L59.2419 55.5836C61.2544 55.5836 62.8858 53.9464 62.8858 51.9267C62.8858 49.907 61.2544 48.2697 59.2419 48.2697L17.7009 48.2697ZM14.057 38.7617C14.057 36.742 15.6884 35.1048 17.7009 35.1048L59.2419 35.1048C61.2544 35.1048 62.8858 36.742 62.8858 38.7617C62.8858 40.7814 61.2544 42.4186 59.2419 42.4186L17.7009 42.4186C15.6884 42.4186 14.057 40.7814 14.057 38.7617ZM17.7009 76.0625C15.6884 76.0625 14.057 77.6998 14.057 79.7194C14.057 81.7391 15.6884 83.3764 17.7009 83.3764H27.1752C29.1877 83.3764 30.8191 81.7391 30.8191 79.7194C30.8191 77.6998 29.1877 76.0625 27.1752 76.0625H17.7009Z" fill="#002C38"/>
</svg>
