<?xml version="1.0" encoding="utf-8"?>
<!-- Generator: Adobe Illustrator 26.5.0, SVG Export Plug-In . SVG Version: 6.00 Build 0)  -->
<svg version="1.1" id="Layer_1" xmlns="http://www.w3.org/2000/svg" xmlns:xlink="http://www.w3.org/1999/xlink" x="0px" y="0px"
	 viewBox="0 0 57.3 74.1" style="enable-background:new 0 0 57.3 74.1;" xml:space="preserve">
<style type="text/css">
	.st0{fill:#FCF7EB;}
	.st1{fill:#FCF7EB;stroke:#FCF7EB;stroke-width:4;}
	.st2{fill:none;stroke:#FCF7EB;stroke-width:4;}
</style>
<path class="st0" d="M11.1,60V46.7h5.1c1.2,0,2.2,0.1,3.1,0.4c0.9,0.2,1.6,0.7,2.2,1.3c0.5,0.6,0.8,1.5,0.8,2.7
	c0,1.2-0.3,2.1-0.8,2.7c-0.5,0.6-1.2,1.1-2.2,1.3c-0.9,0.2-1.9,0.4-3.1,0.4h-2V60H11.1z M14.3,52.8h2.1c0.5,0,0.9,0,1.3-0.1
	c0.4-0.1,0.7-0.3,0.9-0.5c0.2-0.3,0.4-0.6,0.4-1.1c0-0.5-0.1-0.8-0.4-1.1c-0.2-0.3-0.5-0.4-0.9-0.5c-0.4-0.1-0.8-0.1-1.3-0.1h-2.1
	V52.8z M23.6,60V46.7H28c1.1,0,2.1,0.1,3,0.3c0.9,0.2,1.8,0.6,2.5,1.1c0.7,0.5,1.3,1.2,1.6,2.1c0.4,0.9,0.6,1.9,0.6,3.2
	c0,1.3-0.2,2.3-0.6,3.2c-0.4,0.9-0.9,1.5-1.6,2.1c-0.7,0.5-1.5,0.9-2.5,1.1c-0.9,0.2-1.9,0.3-3,0.3H23.6z M26.8,57.4h1.3
	c0.6,0,1.1,0,1.6-0.1c0.5-0.1,1-0.3,1.4-0.5c0.4-0.3,0.8-0.7,1-1.2c0.2-0.5,0.4-1.2,0.4-2.1s-0.1-1.6-0.4-2.1c-0.2-0.5-0.6-1-1-1.2
	c-0.4-0.3-0.9-0.5-1.4-0.6c-0.5-0.1-1.1-0.2-1.6-0.2h-1.3V57.4z M37.3,60V46.7h9.6v2.8h-6.4v2.3h6.4v2.8h-6.4V60H37.3z"/>
<path class="st1" d="M16.3,2.8c2.2-1.8,5.5,0.2,4.8,3l-2.4,10.5c-0.3,1.4-1.5,2.3-2.9,2.3H5.3c-2.8,0-4.1-3.5-1.9-5.3L16.3,2.8z"/>
<path class="st2" d="M17.8,2h27.5c5.5,0,10,4.5,10,10v50c0,5.5-4.5,10-10,10h-33c-5.5,0-10-4.5-10-10V15.6"/>
</svg>
