<svg width="66" height="90" viewBox="0 0 66 90" fill="none" xmlns="http://www.w3.org/2000/svg">
<path d="M19.8251 75.9897V62.6297H24.9651C26.1251 62.6297 27.1584 62.7497 28.0651 62.9897C28.9851 63.2297 29.7051 63.6631 30.2251 64.2897C30.7584 64.9164 31.0251 65.8164 31.0251 66.9897C31.0251 68.1497 30.7584 69.0497 30.2251 69.6897C29.7051 70.3164 28.9851 70.7497 28.0651 70.9897C27.1584 71.2297 26.1251 71.3497 24.9651 71.3497H22.9851V75.9897H19.8251ZM22.9851 68.7297H25.0651C25.5584 68.7297 25.9984 68.6831 26.3851 68.5897C26.7851 68.4964 27.0984 68.3231 27.3251 68.0697C27.5651 67.8164 27.6851 67.4564 27.6851 66.9897C27.6851 66.5231 27.5651 66.1697 27.3251 65.9297C27.0984 65.6764 26.7851 65.5097 26.3851 65.4297C25.9984 65.3364 25.5584 65.2897 25.0651 65.2897H22.9851V68.7297ZM32.3446 75.9897V62.6297H36.7446C37.8379 62.6297 38.8513 62.7431 39.7846 62.9697C40.7313 63.1831 41.5513 63.5497 42.2446 64.0697C42.9513 64.5764 43.4979 65.2631 43.8846 66.1297C44.2846 66.9831 44.4846 68.0431 44.4846 69.3097C44.4846 70.5897 44.2846 71.6564 43.8846 72.5097C43.4979 73.3631 42.9513 74.0497 42.2446 74.5697C41.5513 75.0764 40.7313 75.4431 39.7846 75.6697C38.8513 75.8831 37.8379 75.9897 36.7446 75.9897H32.3446ZM35.5046 73.3297H36.8046C37.3779 73.3297 37.9246 73.2831 38.4446 73.1897C38.9779 73.0964 39.4513 72.9164 39.8646 72.6497C40.2913 72.3697 40.6246 71.9631 40.8646 71.4297C41.1046 70.8964 41.2246 70.1897 41.2246 69.3097C41.2246 68.4297 41.1046 67.7231 40.8646 67.1897C40.6246 66.6431 40.2913 66.2364 39.8646 65.9697C39.4513 65.6897 38.9779 65.5031 38.4446 65.4097C37.9246 65.3031 37.3779 65.2497 36.8046 65.2497H35.5046V73.3297ZM46.0555 75.9897V62.6297H55.6155V65.4097H49.2155V67.7297H55.6155V70.5097H49.2155V75.9897H46.0555Z" fill="#002C38"/>
<path d="M25.0016 18.7103C27.2142 16.9087 30.4553 18.9218 29.8208 21.7037L27.4368 32.1566C27.1256 33.5214 25.9118 34.4896 24.5119 34.4896L14.059 34.4896C11.2361 34.4896 9.97574 30.9457 12.1647 29.1633L25.0016 18.7103Z" fill="#002C38" stroke="#002C38" stroke-width="4"/>
<path d="M26.5 17.9897L54 17.9897C59.5228 17.9897 64 22.4669 64 27.9897V77.9897C64 83.5126 59.5228 87.9897 54 87.9897H21C15.4772 87.9897 11 83.5126 11 77.9897L11 31.5001" stroke="#002C38" stroke-width="4"/>
</svg>
