<svg width="80" height="103" viewBox="0 0 80 103" fill="none" xmlns="http://www.w3.org/2000/svg">
<path fill-rule="evenodd" clip-rule="evenodd" d="M25.2513 0.0218298C23.6199 -0.10985 21.9024 0.347489 20.3929 1.5766L2.67338 16.0054C0.809233 17.5233 0.0324791 19.5966 0.122934 21.606H0.10498V86.3008C0.10498 95.5235 7.54411 103 16.7207 103H62.4141C71.5907 103 79.0299 95.5235 79.0299 86.3008V16.721C79.0299 7.4983 71.5907 0.0218298 62.4141 0.0218298H25.2513ZM31.5482 5.58822C31.7185 6.48387 31.7106 7.4514 31.4799 8.46313L28.1891 22.8919C27.473 26.0318 24.6806 28.259 21.4602 28.259L7.03136 28.259C6.54828 28.259 6.08508 28.2139 5.64357 28.1287V86.3008C5.64357 92.4493 10.603 97.4336 16.7207 97.4336H62.4141C68.5319 97.4336 73.4913 92.4493 73.4913 86.3008V16.721C73.4913 10.5725 68.5319 5.58822 62.4141 5.58822H31.5482Z" fill="#002C38"/>
<path d="M22.7825 43.219C24.2291 40.7135 27.8456 40.7135 29.2921 43.219L34.8253 52.8028C36.2719 55.3083 34.4637 58.4402 31.5705 58.4402H20.5042C17.611 58.4402 15.8028 55.3083 17.2494 52.8027L22.7825 43.219Z" fill="#002C38"/>
<path d="M60.99 49.232C60.99 54.0061 57.1198 57.8762 52.3458 57.8762C47.5718 57.8762 43.7017 54.0061 43.7017 49.232C43.7017 44.458 47.5718 40.5879 52.3458 40.5879C57.1198 40.5879 60.99 44.458 60.99 49.232Z" fill="#002C38"/>
<path d="M18.145 72.1582C18.145 70.0826 19.8277 68.3999 21.9033 68.3999H30.1717C32.2473 68.3999 33.93 70.0826 33.93 72.1582V80.4265C33.93 82.5022 32.2473 84.1849 30.1717 84.1849H21.9033C19.8277 84.1849 18.145 82.5022 18.145 80.4265V72.1582Z" fill="#002C38"/>
<path d="M50.0907 66.4781C51.2535 65.8068 52.6862 65.8068 53.849 66.4781L58.5532 69.1941C59.716 69.8654 60.4323 71.1062 60.4323 72.4489V77.8808C60.4323 79.2235 59.716 80.4642 58.5532 81.1356L53.849 83.8516C52.6862 84.5229 51.2535 84.5229 50.0907 83.8516L45.3865 81.1356C44.2237 80.4642 43.5073 79.2235 43.5073 77.8808V72.4489C43.5073 71.1062 44.2237 69.8654 45.3865 69.1941L50.0907 66.4781Z" fill="#002C38"/>
</svg>
