<?xml version="1.0" encoding="UTF-8"?>
<svg width="219px" height="120px" viewBox="0 0 219 120" version="1.1" xmlns="http://www.w3.org/2000/svg" xmlns:xlink="http://www.w3.org/1999/xlink">
    <title>logoUXQB</title>
    <g id="UXQB-Website" stroke="none" stroke-width="1" fill="none" fill-rule="evenodd">
        <g id="Startseite" transform="translate(-250.000000, -31.000000)">
            <g id="header" transform="translate(250.000000, 24.000000)">
                <g id="logoUXQB" transform="translate(0.000000, 7.000000)">
                    <g id="long-title" stroke-width="1" fill-rule="evenodd" transform="translate(75.600000, 92.400000)" fill="#353535">
                        <g id="last-line" transform="translate(0.663600, 16.437600)" fill-rule="nonzero">
                            <path d="M6.8124,6.5592 C6.8124,7.0608 6.7548,7.5408 6.6408,7.998 C6.5268,8.4552 6.3348,8.8608 6.066,9.2124 C5.7972,9.564 5.4456,9.8448 5.01,10.0572 C4.5744,10.2684 4.0392,10.3752 3.4068,10.3752 C2.7732,10.3752 2.238,10.2684 1.8024,10.0572 C1.3668,9.8448 1.0152,9.564 0.7464,9.2124 C0.4776,8.8608 0.2868,8.4552 0.1716,7.998 C0.0564,7.5408 0,7.0608 0,6.5592 L0,0.7908 L0.8712,0.7908 L0.8712,6.3336 C0.8712,6.6684 0.9024,7.0248 0.9636,7.404 C1.0248,7.7832 1.146,8.1336 1.326,8.46 C1.506,8.7864 1.7616,9.054 2.0916,9.2652 C2.4216,9.4776 2.8596,9.5832 3.4056,9.5832 C3.9516,9.5832 4.3884,9.4776 4.7184,9.2652 C5.0484,9.054 5.304,8.7864 5.484,8.46 C5.664,8.1348 5.7852,7.7832 5.8464,7.404 C5.9076,7.0248 5.9388,6.6696 5.9388,6.3336 L5.9388,0.7908 L6.81,0.7908 L6.81,6.5592 L6.8124,6.5592 Z" id="Path"></path>
                            <polygon id="Path" points="11.9352 5.226 8.7408 0.792 9.7704 0.792 12.4632 4.5936 15.1164 0.792 16.1592 0.792 12.9912 5.226 16.4628 10.1364 15.3804 10.1364 12.4236 5.9124 9.4668 10.1364 8.424 10.1364"></polygon>
                            <path d="M31.6152,10.1364 L26.4672,10.1364 C25.8168,10.1364 25.1928,10.0224 24.6,9.7944 C24.006,9.5652 23.484,9.2412 23.0352,8.8236 C22.5864,8.4048 22.2276,7.9008 21.96,7.3116 C21.6924,6.7224 21.558,6.0672 21.558,5.3448 C21.558,4.668 21.6696,4.0356 21.894,3.4512 C22.1184,2.8656 22.4352,2.3592 22.8444,1.932 C23.2536,1.506 23.7504,1.1676 24.336,0.9216 C24.9216,0.6756 25.5744,0.552 26.2956,0.552 C27.018,0.552 27.6708,0.6756 28.2564,0.9216 C28.842,1.1676 29.3388,1.5048 29.748,1.932 C30.1572,2.358 30.474,2.8644 30.6984,3.4512 C30.9228,4.0356 31.0344,4.668 31.0344,5.3448 C31.0344,5.7576 30.9816,6.1704 30.876,6.5784 C30.7704,6.9876 30.6168,7.3716 30.414,7.7328 C30.2124,8.094 29.9652,8.412 29.6748,8.6904 C29.3844,8.9676 29.058,9.1764 28.698,9.3168 L28.698,9.342 L31.6152,9.342 L31.6152,10.1364 L31.6152,10.1364 Z M22.428,5.3448 C22.428,5.8908 22.5276,6.4068 22.7256,6.8952 C22.9236,7.3836 23.2008,7.8084 23.5572,8.1696 C23.9136,8.5308 24.336,8.8164 24.8244,9.0276 C25.3128,9.2388 25.8516,9.3444 26.4408,9.3444 C27.0396,9.3444 27.5688,9.2328 28.032,9.0096 C28.494,8.784 28.8828,8.4864 29.2008,8.118 C29.5176,7.7484 29.7564,7.3248 29.9196,6.8436 C30.0828,6.3648 30.1644,5.8656 30.1644,5.346 C30.1644,4.782 30.0768,4.2564 29.9004,3.7692 C29.724,3.2808 29.4708,2.8548 29.1408,2.4948 C28.8108,2.1348 28.4064,1.8528 27.9264,1.6512 C27.4464,1.4484 26.9028,1.3464 26.2956,1.3464 C25.6884,1.3464 25.146,1.4484 24.666,1.6512 C24.1872,1.8528 23.7816,2.1348 23.4516,2.4948 C23.1216,2.856 22.8684,3.2808 22.692,3.7692 C22.5156,4.2552 22.428,4.782 22.428,5.3448 Z" id="Shape"></path>
                            <path d="M38.598,8.4204 C38.598,8.5356 38.6016,8.6736 38.6112,8.8368 C38.6208,9 38.6268,9.1644 38.6316,9.3324 C38.6352,9.4992 38.6424,9.6564 38.652,9.8016 C38.6604,9.9456 38.6652,10.0584 38.6652,10.1364 L37.8732,10.1364 C37.8648,9.9096 37.8576,9.6888 37.8528,9.4776 C37.848,9.2652 37.8372,9.1284 37.8204,9.0672 L37.7808,9.0672 C37.6224,9.402 37.3584,9.6912 36.9888,9.9324 C36.6192,10.1736 36.1884,10.296 35.6952,10.296 C35.22,10.296 34.83,10.2216 34.5264,10.0704 C34.2228,9.9192 33.9852,9.726 33.8136,9.4836 C33.642,9.2412 33.5256,8.9616 33.4632,8.646 C33.4008,8.3304 33.3708,8.004 33.3708,7.6692 L33.3708,4.0392 L34.1628,4.0392 L34.1628,7.6296 C34.1628,7.8756 34.1856,8.1168 34.2288,8.3496 C34.2732,8.5836 34.35,8.7924 34.4592,8.9772 C34.5696,9.1608 34.7232,9.3084 34.9212,9.4176 C35.1192,9.528 35.376,9.5844 35.694,9.5844 C35.9844,9.5844 36.2592,9.5328 36.5196,9.432 C36.7788,9.3312 37.0032,9.1764 37.1928,8.97 C37.3824,8.7636 37.5312,8.5032 37.6416,8.1912 C37.752,7.8792 37.8072,7.512 37.8072,7.0884 L37.8072,4.0392 L38.5992,4.0392 L38.5992,8.4204 L38.598,8.4204 Z" id="Path"></path>
                            <path d="M46.0032,7.5768 C46.0032,7.8744 46.0044,8.1444 46.0092,8.3808 C46.0128,8.6184 46.02,8.8392 46.0296,9.042 C46.038,9.2436 46.05,9.4332 46.062,9.6096 C46.0752,9.7848 46.0944,9.9612 46.122,10.1364 L45.3828,10.1364 C45.33,9.8388 45.3036,9.5088 45.3036,9.1476 L45.2772,9.1476 C45.048,9.5436 44.7648,9.834 44.4264,10.0188 C44.0868,10.2036 43.6584,10.296 43.1388,10.296 C42.8748,10.296 42.6144,10.2636 42.36,10.1964 C42.1044,10.1304 41.8764,10.0248 41.6736,9.8796 C41.4708,9.7344 41.3052,9.5484 41.178,9.318 C41.0508,9.09 40.986,8.8116 40.986,8.4864 C40.986,8.0196 41.1048,7.6512 41.3424,7.3776 C41.58,7.1052 41.8728,6.9012 42.2208,6.7632 C42.5688,6.6276 42.9372,6.5388 43.3296,6.5004 C43.7208,6.4608 44.0664,6.4392 44.3652,6.4392 L45.2892,6.4392 L45.2892,6.0696 C45.2892,5.5416 45.126,5.1636 44.8008,4.9344 C44.4756,4.7076 44.0664,4.5924 43.5732,4.5924 C42.8688,4.5924 42.2484,4.8204 41.712,5.2788 L41.25,4.7376 C41.5404,4.4568 41.9004,4.242 42.3324,4.0968 C42.7632,3.9528 43.1772,3.8796 43.5732,3.8796 C44.3124,3.8796 44.9016,4.0536 45.342,4.4004 C45.7824,4.7484 46.002,5.31 46.002,6.0828 L46.002,7.5768 L46.0032,7.5768 Z M44.4192,7.0752 C44.0844,7.0752 43.7616,7.0968 43.4496,7.1412 C43.1364,7.1844 42.8556,7.26 42.6048,7.3656 C42.354,7.4712 42.1536,7.6128 42.0048,7.7892 C41.8548,7.9644 41.7804,8.1852 41.7804,8.448 C41.7804,8.6328 41.8224,8.7984 41.9052,8.9436 C41.988,9.0888 42.0972,9.2076 42.2292,9.3 C42.3612,9.3924 42.5076,9.4632 42.6708,9.5124 C42.834,9.5604 42.9984,9.5856 43.1664,9.5856 C43.5888,9.5856 43.9368,9.5232 44.2092,9.4008 C44.4816,9.276 44.7,9.1176 44.862,8.9184 C45.0252,8.7216 45.1368,8.496 45.1992,8.2452 C45.2604,7.9944 45.2916,7.7412 45.2916,7.4856 L45.2916,7.0776 L44.4192,7.0776 L44.4192,7.0752 Z" id="Shape"></path>
                            <polygon id="Path" points="48.7356 0.1572 49.5276 0.1572 49.5276 10.1352 48.7356 10.1352"></polygon>
                            <path d="M52.2072,1.6224 C52.2072,1.4544 52.2636,1.314 52.3788,1.2 C52.494,1.086 52.6344,1.0272 52.8012,1.0272 C52.968,1.0272 53.1096,1.086 53.2236,1.2 C53.3376,1.314 53.3952,1.4544 53.3952,1.6224 C53.3952,1.7904 53.3376,1.9308 53.2236,2.046 C53.1096,2.1612 52.968,2.2176 52.8012,2.2176 C52.6344,2.2176 52.4928,2.1612 52.3788,2.046 C52.2648,1.9308 52.2072,1.7892 52.2072,1.6224 Z M52.4052,4.0368 L53.1972,4.0368 L53.1972,10.1352 L52.4052,10.1352 L52.4052,4.0368 Z" id="Shape"></path>
                            <path d="M56.3772,4.7508 L55.11,4.7508 L55.11,4.0368 L56.3772,4.0368 L56.3772,2.0448 C56.3772,1.6488 56.4372,1.32 56.5548,1.0608 C56.6736,0.8016 56.8212,0.5916 56.9976,0.4356 C57.1728,0.276 57.3696,0.1632 57.5856,0.0984 C57.8004,0.0324 58.0056,0 58.1988,0 C58.5684,0 58.872,0.0528 59.1096,0.1584 L58.9512,0.8436 C58.776,0.7572 58.5372,0.7128 58.2384,0.7128 C57.5256,0.7128 57.1692,1.254 57.1692,2.3376 L57.1692,4.0392 L58.5948,4.0392 L58.5948,4.7532 L57.1692,4.7532 L57.1692,10.1376 L56.3772,10.1376 L56.3772,4.7508 L56.3772,4.7508 Z" id="Path"></path>
                            <path d="M60.258,1.6224 C60.258,1.4544 60.3144,1.314 60.4296,1.2 C60.5448,1.086 60.6852,1.0272 60.852,1.0272 C61.0188,1.0272 61.1604,1.086 61.2744,1.2 C61.3884,1.314 61.446,1.4544 61.446,1.6224 C61.446,1.7904 61.3884,1.9308 61.2744,2.046 C61.1604,2.1612 61.0188,2.2176 60.852,2.2176 C60.6852,2.2176 60.5436,2.1612 60.4296,2.046 C60.3156,1.9308 60.258,1.7892 60.258,1.6224 Z M60.456,4.0368 L61.248,4.0368 L61.248,10.1352 L60.456,10.1352 L60.456,4.0368 Z" id="Shape"></path>
                            <path d="M69.0876,9.2376 C68.7876,9.5988 68.4492,9.8652 68.0712,10.0368 C67.6932,10.2084 67.284,10.2948 66.8436,10.2948 C66.3768,10.2948 65.946,10.2156 65.55,10.0572 C65.154,9.8988 64.8156,9.6768 64.5336,9.39 C64.2528,9.1044 64.032,8.7648 63.8736,8.3736 C63.7152,7.9812 63.636,7.5516 63.636,7.086 C63.636,6.6204 63.7152,6.1908 63.8736,5.7996 C64.032,5.4084 64.2516,5.07 64.5336,4.7832 C64.8156,4.4976 65.154,4.2756 65.55,4.116 C65.946,3.9576 66.3768,3.8796 66.8436,3.8796 C67.2924,3.8796 67.7076,3.9708 68.0916,4.1556 C68.4744,4.3404 68.8152,4.5996 69.1152,4.9332 L68.4816,5.4084 C68.2536,5.1528 68.0028,4.9536 67.7292,4.8084 C67.4556,4.6632 67.1616,4.59 66.8448,4.59 C66.4752,4.59 66.1404,4.656 65.8416,4.7868 C65.5416,4.9188 65.2872,5.0988 65.076,5.322 C64.8648,5.5464 64.704,5.8104 64.5948,6.1128 C64.4844,6.4176 64.4292,6.7404 64.4292,7.0836 C64.4292,7.428 64.4844,7.752 64.5948,8.0544 C64.704,8.3592 64.866,8.6232 65.076,8.8464 C65.2872,9.072 65.5428,9.2496 65.8416,9.3804 C66.1404,9.5124 66.4752,9.5796 66.8448,9.5796 C67.1784,9.5796 67.4844,9.5028 67.7628,9.348 C68.04,9.1944 68.28,8.9892 68.4816,8.7336 L69.0876,9.2376 Z" id="Path"></path>
                            <path d="M75.5568,7.5768 C75.5568,7.8744 75.558,8.1444 75.5628,8.3808 C75.5676,8.6184 75.5748,8.8392 75.5844,9.042 C75.5928,9.2436 75.6036,9.4332 75.6168,9.6096 C75.63,9.7848 75.6492,9.9612 75.6756,10.1364 L74.9364,10.1364 C74.8824,9.8388 74.8572,9.5088 74.8572,9.1476 L74.832,9.1476 C74.6028,9.5436 74.3184,9.834 73.98,10.0188 C73.6404,10.2036 73.212,10.296 72.6924,10.296 C72.4284,10.296 72.168,10.2636 71.9136,10.1964 C71.658,10.1304 71.43,10.0248 71.2272,9.8796 C71.0244,9.7344 70.8588,9.5484 70.7316,9.318 C70.6044,9.09 70.5396,8.8116 70.5396,8.4864 C70.5396,8.0196 70.6584,7.6512 70.896,7.3776 C71.1336,7.1052 71.4264,6.9012 71.7744,6.7632 C72.1224,6.6276 72.4908,6.5388 72.8832,6.5004 C73.2744,6.4608 73.62,6.4392 73.9188,6.4392 L74.8428,6.4392 L74.8428,6.0696 C74.8428,5.5416 74.6808,5.1636 74.3556,4.9344 C74.0304,4.7076 73.6212,4.5924 73.128,4.5924 C72.4236,4.5924 71.8032,4.8204 71.2668,5.2788 L70.8048,4.7376 C71.0952,4.4568 71.4552,4.242 71.8872,4.0968 C72.318,3.9528 72.732,3.8796 73.128,3.8796 C73.8672,3.8796 74.4564,4.0536 74.8968,4.4004 C75.336,4.7484 75.5568,5.31 75.5568,6.0828 L75.5568,7.5768 Z M73.9716,7.0752 C73.6368,7.0752 73.314,7.0968 73.002,7.1412 C72.6888,7.1844 72.408,7.26 72.1572,7.3656 C71.9064,7.4712 71.706,7.6128 71.5572,7.7892 C71.4072,7.9644 71.3328,8.1852 71.3328,8.448 C71.3328,8.6328 71.3748,8.7984 71.4576,8.9436 C71.5404,9.0888 71.6496,9.2076 71.7816,9.3 C71.9136,9.3924 72.06,9.4632 72.2232,9.5124 C72.3864,9.5604 72.5508,9.5856 72.7188,9.5856 C73.1412,9.5856 73.4892,9.5232 73.7616,9.4008 C74.0352,9.276 74.2524,9.1176 74.4144,8.9184 C74.5788,8.7216 74.6892,8.496 74.7516,8.2452 C74.8128,7.9944 74.8428,7.7412 74.8428,7.4856 L74.8428,7.0776 L73.9716,7.0776 L73.9716,7.0752 Z" id="Shape"></path>
                            <path d="M81.1404,4.7508 L79.3968,4.7508 L79.3968,8.7252 C79.3968,8.9976 79.4712,9.2076 79.6224,9.3576 C79.7736,9.5076 79.9788,9.5832 80.244,9.5832 C80.3928,9.5832 80.544,9.5616 80.6988,9.522 C80.8524,9.4836 81,9.4332 81.1416,9.3708 L81.2076,10.0848 C81.0576,10.1364 80.886,10.1856 80.6916,10.23 C80.4984,10.2732 80.3256,10.296 80.1768,10.296 C79.8948,10.296 79.6524,10.254 79.452,10.17 C79.248,10.0884 79.086,9.9756 78.9624,9.8352 C78.84,9.6948 78.7488,9.528 78.6924,9.3396 C78.6348,9.1512 78.606,8.946 78.606,8.7264 L78.606,4.752 L77.286,4.752 L77.286,4.038 L78.606,4.038 L78.606,2.2824 L79.398,2.2824 L79.398,4.038 L81.1416,4.038 L81.1416,4.7508 L81.1404,4.7508 Z" id="Path"></path>
                            <path d="M82.9884,1.6224 C82.9884,1.4544 83.046,1.314 83.16,1.2 C83.274,1.086 83.4156,1.0272 83.5836,1.0272 C83.7504,1.0272 83.8908,1.086 84.006,1.2 C84.1212,1.314 84.1776,1.4544 84.1776,1.6224 C84.1776,1.7904 84.1212,1.9308 84.006,2.046 C83.8908,2.1612 83.7504,2.2176 83.5836,2.2176 C83.4156,2.2176 83.274,2.1612 83.16,2.046 C83.046,1.9308 82.9884,1.7892 82.9884,1.6224 Z M83.1864,4.0368 L83.9784,4.0368 L83.9784,10.1352 L83.1864,10.1352 L83.1864,4.0368 Z" id="Shape"></path>
                            <path d="M86.3664,7.0872 C86.3664,6.6204 86.4456,6.192 86.604,5.8008 C86.7624,5.4096 86.982,5.0712 87.264,4.7844 C87.546,4.4976 87.8856,4.2768 88.2816,4.1172 C88.6776,3.9588 89.1084,3.8808 89.5752,3.8808 C90.042,3.8808 90.4704,3.9588 90.8616,4.1172 C91.2528,4.2768 91.5912,4.4976 91.878,4.7844 C92.1648,5.0712 92.3856,5.4096 92.5452,5.8008 C92.7036,6.192 92.7816,6.6216 92.7816,7.0872 C92.7816,7.5528 92.7036,7.9824 92.5452,8.3748 C92.3856,8.766 92.1648,9.1044 91.878,9.3912 C91.5912,9.678 91.2528,9.9 90.8616,10.0584 C90.4704,10.2168 90.0408,10.296 89.5752,10.296 C89.1096,10.296 88.6776,10.2168 88.2816,10.0584 C87.8856,9.9 87.546,9.678 87.264,9.3912 C86.982,9.1044 86.7624,8.766 86.604,8.3748 C86.4468,7.9824 86.3664,7.5528 86.3664,7.0872 Z M87.1596,7.0872 C87.1596,7.4316 87.2148,7.7556 87.3252,8.058 C87.4344,8.3628 87.5964,8.6268 87.8064,8.85 C88.0176,9.0756 88.2732,9.2532 88.5732,9.384 C88.8708,9.516 89.2056,9.5832 89.5764,9.5832 C89.946,9.5832 90.2796,9.516 90.5796,9.384 C90.8772,9.2532 91.1328,9.0744 91.3452,8.85 C91.5564,8.6256 91.7172,8.3628 91.8264,8.058 C91.9368,7.7556 91.9908,7.4328 91.9908,7.0872 C91.9908,6.7452 91.9368,6.4212 91.8264,6.1164 C91.716,5.814 91.5552,5.5488 91.3452,5.3256 C91.1328,5.1012 90.8772,4.9224 90.5796,4.7904 C90.2796,4.6596 89.946,4.5936 89.5764,4.5936 C89.2056,4.5936 88.8708,4.6596 88.5732,4.7904 C88.2732,4.9224 88.0176,5.1024 87.8064,5.3256 C87.5952,5.5488 87.4332,5.814 87.3252,6.1164 C87.2136,6.4212 87.1596,6.744 87.1596,7.0872 Z" id="Shape"></path>
                            <path d="M95.0388,5.754 C95.0388,5.64 95.034,5.5008 95.0268,5.3376 C95.0172,5.1744 95.01,5.01 95.0052,4.8432 C95.0004,4.6752 94.9944,4.5192 94.986,4.374 C94.9764,4.2288 94.9716,4.116 94.9716,4.0368 L95.7636,4.0368 C95.7732,4.266 95.7792,4.4868 95.784,4.698 C95.7876,4.9092 95.7996,5.0448 95.8164,5.1072 L95.856,5.1072 C96.0144,4.7736 96.2796,4.4844 96.648,4.242 C97.0164,3.9996 97.4484,3.8796 97.9404,3.8796 C98.4156,3.8796 98.8032,3.954 99.1032,4.104 C99.402,4.2528 99.6372,4.4496 99.8088,4.6908 C99.9816,4.932 100.0992,5.2128 100.1652,5.5296 C100.2324,5.8464 100.2648,6.1716 100.2648,6.5052 L100.2648,10.134 L99.474,10.134 L99.474,6.5436 C99.474,6.2976 99.45,6.0588 99.4068,5.8248 C99.3636,5.5908 99.2856,5.3832 99.1764,5.1984 C99.0672,5.0136 98.9112,4.866 98.7144,4.7556 C98.5152,4.6452 98.2584,4.5912 97.9404,4.5912 C97.6512,4.5912 97.3752,4.6416 97.1148,4.7424 C96.8556,4.8444 96.6324,4.998 96.4416,5.2056 C96.252,5.412 96.1032,5.6724 95.994,5.9832 C95.8836,6.2952 95.8272,6.6624 95.8272,7.0848 L95.8272,10.134 L95.0352,10.134 L95.0352,5.754 L95.0388,5.754 Z" id="Path"></path>
                            <path d="M107.0112,0.7908 L109.704,0.7908 C110.0556,0.7908 110.4132,0.8184 110.7744,0.876 C111.1344,0.9336 111.4572,1.0512 111.7452,1.2324 C112.0296,1.4124 112.2636,1.6632 112.4436,1.9848 C112.6236,2.3064 112.7148,2.7312 112.7148,3.2592 C112.7148,3.7344 112.5744,4.1472 112.2912,4.5 C112.0104,4.8516 111.5928,5.0844 111.0372,5.1996 L111.0372,5.2248 C111.3468,5.2512 111.6276,5.3244 111.8832,5.4432 C112.1376,5.5632 112.3584,5.7192 112.542,5.9184 C112.7268,6.1152 112.8696,6.3516 112.9716,6.624 C113.0724,6.8976 113.1228,7.1964 113.1228,7.5216 C113.1228,8.058 113.0196,8.496 112.8132,8.8356 C112.6056,9.174 112.3464,9.4416 112.0344,9.6336 C111.7212,9.828 111.384,9.9588 111.018,10.0296 C110.652,10.1004 110.3112,10.1352 109.9944,10.1352 L107.0112,10.1352 L107.0112,0.7908 Z M107.8824,4.83 L109.692,4.83 C110.1396,4.83 110.5056,4.776 110.7864,4.6656 C111.0684,4.5552 111.288,4.4208 111.4476,4.2624 C111.606,4.104 111.7116,3.9348 111.7644,3.7536 C111.8172,3.5724 111.8436,3.4092 111.8436,3.2592 C111.8436,2.934 111.7872,2.664 111.678,2.4468 C111.5676,2.232 111.4212,2.0604 111.2364,1.932 C111.0516,1.8036 110.8356,1.7136 110.5896,1.6608 C110.3436,1.608 110.0832,1.5828 109.8108,1.5828 L107.8836,1.5828 L107.8836,4.83 L107.8824,4.83 Z M107.8824,9.3432 L109.8768,9.3432 C110.3868,9.3432 110.7984,9.282 111.1092,9.1596 C111.4224,9.036 111.6624,8.8824 111.8292,8.6964 C111.9972,8.5128 112.1088,8.3172 112.1664,8.1108 C112.2228,7.9032 112.2516,7.7172 112.2516,7.5492 C112.2516,7.206 112.1844,6.9108 112.0536,6.6648 C111.9228,6.4188 111.75,6.2184 111.5376,6.0648 C111.3264,5.91 111.0876,5.7972 110.8188,5.7276 C110.55,5.658 110.2788,5.622 110.0064,5.622 L107.8812,5.622 L107.8812,9.3432 L107.8824,9.3432 Z" id="Shape"></path>
                            <path d="M115.2492,7.0872 C115.2492,6.6204 115.3284,6.192 115.4856,5.8008 C115.6452,5.4096 115.8648,5.0712 116.1468,4.7844 C116.4288,4.4976 116.7672,4.2768 117.1632,4.1172 C117.5592,3.9588 117.99,3.8808 118.4568,3.8808 C118.9236,3.8808 119.352,3.9588 119.7432,4.1172 C120.1344,4.2768 120.4728,4.4976 120.7596,4.7844 C121.0464,5.0712 121.2684,5.4096 121.428,5.8008 C121.5852,6.192 121.6644,6.6216 121.6644,7.0872 C121.6644,7.5528 121.5852,7.9824 121.428,8.3748 C121.2684,8.766 121.0464,9.1044 120.7596,9.3912 C120.4728,9.678 120.1344,9.9 119.7432,10.0584 C119.352,10.2168 118.9224,10.296 118.4568,10.296 C117.9912,10.296 117.5592,10.2168 117.1632,10.0584 C116.7672,9.9 116.4288,9.678 116.1468,9.3912 C115.8648,9.1044 115.6452,8.766 115.4856,8.3748 C115.3284,7.9824 115.2492,7.5528 115.2492,7.0872 Z M116.0412,7.0872 C116.0412,7.4316 116.0952,7.7556 116.2056,8.058 C116.316,8.3628 116.478,8.6268 116.688,8.85 C116.8992,9.0756 117.1548,9.2532 117.4536,9.384 C117.7524,9.516 118.0872,9.5832 118.4568,9.5832 C118.8264,9.5832 119.1612,9.516 119.46,9.384 C119.7588,9.2532 120.0144,9.0744 120.2256,8.85 C120.4368,8.6256 120.5988,8.3628 120.708,8.058 C120.8172,7.7556 120.8724,7.4328 120.8724,7.0872 C120.8724,6.7452 120.8172,6.4212 120.708,6.1164 C120.5976,5.814 120.4356,5.5488 120.2256,5.3256 C120.0156,5.1024 119.7588,4.9224 119.46,4.7904 C119.1612,4.6596 118.8264,4.5936 118.4568,4.5936 C118.0872,4.5936 117.7524,4.6596 117.4536,4.7904 C117.1548,4.9224 116.8992,5.1024 116.688,5.3256 C116.4768,5.5488 116.3148,5.814 116.2056,6.1164 C116.0952,6.4212 116.0412,6.744 116.0412,7.0872 Z" id="Shape"></path>
                            <path d="M128.6604,7.5768 C128.6604,7.8744 128.6616,8.1444 128.6664,8.3808 C128.67,8.6184 128.6772,8.8392 128.6868,9.042 C128.6964,9.2436 128.7072,9.4332 128.7192,9.6096 C128.7336,9.7848 128.7516,9.9612 128.7792,10.1364 L128.04,10.1364 C127.9872,9.8388 127.9608,9.5088 127.9608,9.1476 L127.9356,9.1476 C127.7064,9.5436 127.422,9.834 127.0848,10.0188 C126.7452,10.2036 126.3156,10.296 125.7972,10.296 C125.5332,10.296 125.2728,10.2636 125.0184,10.1964 C124.7628,10.1304 124.536,10.0248 124.3332,9.8796 C124.1304,9.7344 123.9648,9.5484 123.8376,9.318 C123.7116,9.09 123.6468,8.8116 123.6468,8.4864 C123.6468,8.0196 123.7656,7.6512 124.0032,7.3776 C124.2408,7.1052 124.5336,6.9012 124.8804,6.7632 C125.2284,6.6276 125.598,6.5388 125.9892,6.5004 C126.3804,6.4608 126.7272,6.4392 127.0248,6.4392 L127.95,6.4392 L127.95,6.0696 C127.95,5.5416 127.7868,5.1636 127.4616,4.9344 C127.1364,4.7076 126.7284,4.5924 126.2352,4.5924 C125.5308,4.5924 124.9104,4.8204 124.3728,5.2788 L123.9108,4.7376 C124.2012,4.4568 124.5624,4.242 124.9932,4.0968 C125.424,3.9528 125.838,3.8796 126.234,3.8796 C126.9732,3.8796 127.5612,4.0536 128.0028,4.4004 C128.4432,4.7484 128.664,5.31 128.664,6.0828 L128.664,7.5768 L128.6604,7.5768 Z M127.0752,7.0752 C126.7404,7.0752 126.4164,7.0968 126.1044,7.1412 C125.7912,7.1844 125.5104,7.26 125.2596,7.3656 C125.0088,7.4712 124.8084,7.6128 124.6584,7.7892 C124.5084,7.9656 124.434,8.1852 124.434,8.448 C124.434,8.6328 124.4748,8.7984 124.5588,8.9436 C124.6416,9.0888 124.7508,9.2076 124.8828,9.3 C125.0148,9.3924 125.1612,9.4632 125.3244,9.5124 C125.4876,9.5604 125.652,9.5856 125.82,9.5856 C126.2424,9.5856 126.5892,9.5232 126.8628,9.4008 C127.1352,9.276 127.3524,9.1176 127.5156,8.9184 C127.6788,8.7216 127.7904,8.496 127.8516,8.2452 C127.9128,7.9944 127.944,7.7412 127.944,7.4856 L127.944,7.0776 L127.0752,7.0776 L127.0752,7.0752 Z" id="Shape"></path>
                            <path d="M131.2596,5.754 C131.2596,5.64 131.2548,5.5008 131.2476,5.3376 C131.238,5.1744 131.2308,5.01 131.226,4.8432 C131.2212,4.6752 131.2152,4.5192 131.2068,4.374 C131.1972,4.2288 131.1924,4.116 131.1924,4.0368 L131.9844,4.0368 C131.994,4.266 132,4.4868 132.0048,4.698 C132.0084,4.9092 132.0204,5.0448 132.0372,5.1072 C132.24,4.746 132.5004,4.452 132.816,4.2228 C133.1328,3.9948 133.5192,3.8808 133.9776,3.8808 C134.0556,3.8808 134.1336,3.8868 134.208,3.9 C134.2824,3.9144 134.3604,3.9276 134.4384,3.9468 L134.346,4.7244 C134.2404,4.6896 134.1396,4.6716 134.0436,4.6716 C133.6992,4.6716 133.4028,4.7268 133.152,4.8372 C132.9012,4.9476 132.6936,5.1 132.5316,5.292 C132.3672,5.4864 132.2484,5.7144 132.168,5.9712 C132.0888,6.2316 132.048,6.5112 132.048,6.81 L132.048,10.1352 L131.256,10.1352 L131.256,5.754 L131.2596,5.754 Z" id="Path"></path>
                            <path d="M141.2388,9.0672 L141.2124,9.0672 C141.0888,9.2784 140.9352,9.4608 140.7504,9.6156 C140.5668,9.7692 140.3652,9.8964 140.1492,9.9972 C139.9332,10.098 139.7076,10.1724 139.47,10.2228 C139.2336,10.2708 138.9984,10.296 138.7716,10.296 C138.3048,10.296 137.874,10.2168 137.478,10.0584 C137.082,9.9 136.7424,9.678 136.4604,9.3912 C136.1784,9.1044 135.9588,8.766 135.8004,8.3748 C135.642,7.9824 135.5628,7.5528 135.5628,7.0872 C135.5628,6.6216 135.642,6.192 135.8004,5.8008 C135.9588,5.4096 136.1784,5.0712 136.4604,4.7844 C136.7424,4.4976 137.082,4.2768 137.478,4.1172 C137.874,3.9588 138.3048,3.8808 138.7716,3.8808 C138.9984,3.8808 139.2336,3.9048 139.47,3.954 C139.7076,4.0008 139.9344,4.0764 140.1492,4.1784 C140.3652,4.2792 140.5668,4.4064 140.7504,4.5612 C140.934,4.7148 141.0888,4.896 141.2124,5.1084 L141.2388,5.1084 L141.2388,0.1584 L142.0308,0.1584 L142.0308,10.1364 L141.2388,10.1364 L141.2388,9.0672 Z M141.318,7.0872 C141.318,6.7452 141.2508,6.4212 141.1188,6.1164 C140.988,5.814 140.8068,5.5488 140.5776,5.3256 C140.3496,5.1012 140.0808,4.9224 139.7736,4.7904 C139.464,4.6596 139.1304,4.5936 138.7704,4.5936 C138.3996,4.5936 138.0648,4.6596 137.7672,4.7904 C137.4672,4.9224 137.2116,5.1024 137.0004,5.3256 C136.7892,5.5488 136.6272,5.814 136.5192,6.1164 C136.4088,6.4212 136.3536,6.744 136.3536,7.0872 C136.3536,7.4316 136.4088,7.7556 136.5192,8.058 C136.6284,8.3628 136.7904,8.6268 137.0004,8.85 C137.2116,9.0756 137.4672,9.2532 137.7672,9.384 C138.0648,9.516 138.3996,9.5832 138.7704,9.5832 C139.1304,9.5832 139.464,9.516 139.7736,9.384 C140.0808,9.2532 140.3484,9.0744 140.5776,8.85 C140.8068,8.6256 140.988,8.3628 141.1188,8.058 C141.252,7.7544 141.318,7.4316 141.318,7.0872 Z" id="Shape"></path>
                        </g>
                        <g id="first-line" transform="translate(0.685200, 0.754800)" fill-rule="nonzero">
                            <polygon id="Path" points="0.1644 0.6336 1.0356 0.6336 1.0356 9.9792 0.1644 9.9792"></polygon>
                            <path d="M3.042,5.5968 C3.042,5.4828 3.0372,5.3436 3.0288,5.1804 C3.0204,5.0172 3.0132,4.8528 3.0084,4.6848 C3.0036,4.518 2.9976,4.3608 2.988,4.2168 C2.9796,4.0716 2.9748,3.9588 2.9748,3.8796 L3.7668,3.8796 C3.7752,4.1088 3.7824,4.3284 3.7872,4.5396 C3.7908,4.7508 3.8028,4.8876 3.8196,4.9488 L3.8592,4.9488 C4.0176,4.614 4.2816,4.326 4.6512,4.0836 C5.0208,3.8412 5.4516,3.7212 5.9448,3.7212 C6.42,3.7212 6.8076,3.7956 7.1064,3.9456 C7.4052,4.0956 7.6404,4.2912 7.812,4.5324 C7.9836,4.7736 8.1024,5.0544 8.1684,5.3712 C8.2344,5.688 8.268,6.0132 8.268,6.348 L8.268,9.978 L7.476,9.978 L7.476,6.3876 C7.476,6.1416 7.4532,5.9016 7.41,5.6688 C7.3668,5.436 7.2888,5.226 7.1796,5.0424 C7.0692,4.8576 6.9156,4.71 6.7176,4.5996 C6.5196,4.4892 6.2628,4.434 5.9448,4.434 C5.6544,4.434 5.3796,4.4844 5.1192,4.5852 C4.86,4.686 4.6356,4.8408 4.446,5.0472 C4.2564,5.2536 4.1076,5.514 3.9972,5.826 C3.8868,6.138 3.8316,6.5052 3.8316,6.9276 L3.8316,9.9768 L3.0396,9.9768 L3.0396,5.5968 L3.042,5.5968 Z" id="Path"></path>
                            <path d="M13.0356,4.5936 L11.2932,4.5936 L11.2932,8.5668 C11.2932,8.8392 11.3676,9.0504 11.5176,9.2004 C11.6676,9.3504 11.874,9.4248 12.138,9.4248 C12.288,9.4248 12.4392,9.4044 12.5928,9.3648 C12.7464,9.3252 12.894,9.2748 13.0356,9.2136 L13.1016,9.9264 C12.9516,9.9792 12.78,10.0272 12.5868,10.0716 C12.3924,10.116 12.2208,10.1376 12.072,10.1376 C11.79,10.1376 11.5476,10.0956 11.346,10.0128 C11.1432,9.93 10.9812,9.8172 10.8576,9.6768 C10.734,9.5364 10.644,9.3708 10.5876,9.1812 C10.53,8.9916 10.5012,8.7876 10.5012,8.568 L10.5012,4.5948 L9.1812,4.5948 L9.1812,3.882 L10.5012,3.882 L10.5012,2.1252 L11.2932,2.1252 L11.2932,3.8808 L13.0356,3.8808 L13.0356,4.5936 Z" id="Path"></path>
                            <path d="M19.5036,8.8308 C19.1952,9.2976 18.8148,9.6312 18.3612,9.834 C17.9076,10.0368 17.4084,10.1376 16.8624,10.1376 C16.3956,10.1376 15.9732,10.0584 15.5952,9.9 C15.2172,9.7416 14.892,9.5196 14.6184,9.2328 C14.346,8.9472 14.1372,8.6076 13.992,8.2164 C13.8468,7.824 13.7748,7.3908 13.7748,6.9168 C13.7748,6.4596 13.8492,6.0372 13.9992,5.6496 C14.1492,5.262 14.3604,4.926 14.6328,4.6392 C14.9052,4.3536 15.2268,4.1292 15.5964,3.966 C15.966,3.804 16.3752,3.7224 16.824,3.7224 C17.2908,3.7224 17.7024,3.804 18.0588,3.966 C18.4152,4.1292 18.714,4.344 18.9564,4.6128 C19.1988,4.8816 19.3812,5.1876 19.5048,5.5308 C19.6284,5.874 19.6896,6.222 19.6896,6.5736 L19.6896,7.128 L14.568,7.128 C14.568,7.2948 14.6016,7.5084 14.6676,7.7688 C14.7336,8.028 14.8548,8.2812 15.0312,8.5272 C15.2064,8.7744 15.4428,8.9844 15.7368,9.1608 C16.032,9.3372 16.4112,9.4248 16.8792,9.4248 C17.2836,9.4248 17.676,9.3276 18.054,9.1344 C18.432,8.9412 18.7224,8.6772 18.9252,8.3424 L19.5036,8.8308 Z M18.8952,6.4152 C18.8952,6.1428 18.84,5.8872 18.7308,5.6496 C18.6204,5.412 18.4716,5.2032 18.282,5.0232 C18.0924,4.8432 17.868,4.6992 17.6088,4.5948 C17.3496,4.4892 17.0748,4.4364 16.7832,4.4364 C16.3524,4.4364 15.9936,4.5252 15.708,4.7004 C15.4224,4.8756 15.1956,5.0784 15.0288,5.3076 C14.8608,5.5368 14.742,5.7588 14.6724,5.9748 C14.6028,6.1908 14.5668,6.3372 14.5668,6.4164 L18.8952,6.4164 L18.8952,6.4152 Z" id="Shape"></path>
                            <path d="M21.1272,5.5968 C21.1272,5.4828 21.1224,5.3436 21.114,5.1804 C21.1056,5.0172 21.0984,4.8528 21.0936,4.6848 C21.0888,4.518 21.0828,4.3608 21.0732,4.2168 C21.0648,4.0716 21.06,3.9588 21.06,3.8796 L21.852,3.8796 C21.8604,4.1088 21.8676,4.3284 21.8724,4.5396 C21.876,4.7508 21.888,4.8876 21.9048,4.9488 C22.1076,4.5876 22.3668,4.2936 22.6836,4.0644 C23.0004,3.8364 23.3868,3.7212 23.8452,3.7212 C23.9244,3.7212 24.0012,3.7272 24.0756,3.7416 C24.15,3.7548 24.2268,3.7692 24.306,3.7872 L24.2136,4.566 C24.108,4.5312 24.0072,4.5132 23.91,4.5132 C23.5668,4.5132 23.2692,4.5684 23.0184,4.6788 C22.7676,4.7892 22.5612,4.9404 22.398,5.1336 C22.2348,5.328 22.1148,5.5548 22.0356,5.8128 C21.9564,6.0732 21.9168,6.3528 21.9168,6.6516 L21.9168,9.978 L21.1248,9.978 L21.1248,5.5968 L21.1272,5.5968 Z" id="Path"></path>
                            <path d="M25.1928,5.5968 C25.1928,5.4828 25.188,5.3436 25.1796,5.1804 C25.1712,5.0172 25.164,4.8528 25.1592,4.6848 C25.1544,4.518 25.1484,4.3608 25.1388,4.2168 C25.1304,4.0716 25.1256,3.9588 25.1256,3.8796 L25.9176,3.8796 C25.926,4.1088 25.9332,4.3284 25.938,4.5396 C25.9416,4.7508 25.9536,4.8876 25.9704,4.9488 L26.01,4.9488 C26.1684,4.614 26.4324,4.326 26.802,4.0836 C27.1716,3.8412 27.6024,3.7212 28.0956,3.7212 C28.5708,3.7212 28.9584,3.7956 29.2572,3.9456 C29.556,4.0956 29.7912,4.2912 29.9628,4.5324 C30.1344,4.7736 30.2532,5.0544 30.3192,5.3712 C30.3852,5.688 30.4188,6.0132 30.4188,6.348 L30.4188,9.978 L29.6268,9.978 L29.6268,6.3876 C29.6268,6.1416 29.604,5.9016 29.5608,5.6688 C29.5176,5.436 29.4396,5.226 29.3304,5.0424 C29.22,4.8576 29.0664,4.71 28.8684,4.5996 C28.6704,4.4892 28.4136,4.434 28.0956,4.434 C27.8052,4.434 27.5304,4.4844 27.27,4.5852 C27.0108,4.686 26.7864,4.8408 26.5968,5.0472 C26.4072,5.2536 26.2584,5.514 26.148,5.826 C26.0376,6.138 25.9824,6.5052 25.9824,6.9276 L25.9824,9.9768 L25.1904,9.9768 L25.1904,5.5968 L25.1928,5.5968 Z" id="Path"></path>
                            <path d="M36.9408,7.4184 C36.9408,7.7172 36.942,7.986 36.9468,8.2236 C36.9504,8.4612 36.9576,8.6808 36.9672,8.8836 C36.9756,9.0864 36.9876,9.276 36.9996,9.4512 C37.0128,9.6264 37.032,9.8028 37.0596,9.9792 L36.3204,9.9792 C36.2676,9.6804 36.2412,9.3504 36.2412,8.9892 L36.2148,8.9892 C35.9856,9.3852 35.7024,9.6756 35.364,9.8604 C35.0244,10.0452 34.596,10.1376 34.0764,10.1376 C33.8124,10.1376 33.552,10.1052 33.2976,10.038 C33.042,9.972 32.814,9.8664 32.6112,9.7212 C32.4084,9.576 32.2428,9.3888 32.1156,9.1596 C31.9884,8.9316 31.9236,8.6544 31.9236,8.328 C31.9236,7.8612 32.0424,7.4916 32.28,7.2192 C32.5176,6.9456 32.8104,6.7416 33.1584,6.6048 C33.5064,6.468 33.8748,6.3804 34.2672,6.3408 C34.6584,6.3012 35.004,6.2808 35.3028,6.2808 L36.2268,6.2808 L36.2268,5.9112 C36.2268,5.3832 36.0636,5.0052 35.7384,4.776 C35.4132,4.548 35.004,4.4328 34.5108,4.4328 C33.8064,4.4328 33.186,4.662 32.6496,5.1192 L32.1876,4.578 C32.478,4.2972 32.838,4.0824 33.27,3.9372 C33.7008,3.792 34.1148,3.72 34.5108,3.72 C35.25,3.72 35.8392,3.894 36.2796,4.242 C36.72,4.59 36.9396,5.1504 36.9396,5.9244 L36.9396,7.4184 L36.9408,7.4184 Z M35.3568,6.9168 C35.022,6.9168 34.6992,6.9384 34.3872,6.9828 C34.074,7.0272 33.7932,7.1016 33.5424,7.2072 C33.2916,7.3128 33.0912,7.4544 32.9424,7.6296 C32.7924,7.806 32.718,8.0256 32.718,8.2896 C32.718,8.4744 32.76,8.64 32.8428,8.7852 C32.9256,8.9304 33.0348,9.0492 33.1668,9.1416 C33.2988,9.234 33.4452,9.3048 33.6084,9.3528 C33.7716,9.402 33.936,9.426 34.104,9.426 C34.5264,9.426 34.8744,9.3648 35.1468,9.2412 C35.4192,9.1176 35.6376,8.958 35.7996,8.76 C35.9616,8.562 36.0744,8.3376 36.1368,8.0868 C36.198,7.836 36.2292,7.584 36.2292,7.3284 L36.2292,6.9192 L35.3568,6.9192 L35.3568,6.9168 Z" id="Shape"></path>
                            <path d="M41.7072,4.5936 L39.9648,4.5936 L39.9648,8.5668 C39.9648,8.8392 40.0392,9.0504 40.1892,9.2004 C40.3392,9.3504 40.5456,9.4248 40.8096,9.4248 C40.9596,9.4248 41.1108,9.4044 41.2644,9.3648 C41.418,9.3252 41.5656,9.2748 41.7072,9.2136 L41.7732,9.9264 C41.6232,9.9792 41.4516,10.0272 41.2584,10.0716 C41.064,10.116 40.8924,10.1376 40.7436,10.1376 C40.4616,10.1376 40.2192,10.0956 40.0176,10.0128 C39.8148,9.93 39.6528,9.8172 39.5292,9.6768 C39.4056,9.5364 39.3156,9.3708 39.2592,9.1812 C39.2016,8.9916 39.1728,8.7876 39.1728,8.568 L39.1728,4.5948 L37.8528,4.5948 L37.8528,3.882 L39.1728,3.882 L39.1728,2.1252 L39.9648,2.1252 L39.9648,3.8808 L41.7072,3.8808 L41.7072,4.5936 L41.7072,4.5936 Z" id="Path"></path>
                            <path d="M42.7356,1.4652 C42.7356,1.2984 42.792,1.158 42.9072,1.0428 C43.0224,0.9276 43.1628,0.8712 43.3296,0.8712 C43.4964,0.8712 43.638,0.9288 43.752,1.0428 C43.866,1.1568 43.9236,1.2972 43.9236,1.4652 C43.9236,1.6332 43.866,1.7736 43.752,1.8876 C43.638,2.0028 43.4964,2.0592 43.3296,2.0592 C43.1628,2.0592 43.0212,2.0028 42.9072,1.8876 C42.792,1.7724 42.7356,1.632 42.7356,1.4652 Z M42.9336,3.8808 L43.7256,3.8808 L43.7256,9.9792 L42.9336,9.9792 L42.9336,3.8808 Z" id="Shape"></path>
                            <path d="M45.2964,6.93 C45.2964,6.4632 45.3756,6.0348 45.534,5.6436 C45.6924,5.2512 45.912,4.9128 46.194,4.6272 C46.476,4.3416 46.8144,4.1196 47.2104,3.96 C47.6064,3.8016 48.0372,3.7224 48.504,3.7224 C48.9708,3.7224 49.3992,3.8016 49.7904,3.96 C50.1816,4.1184 50.5212,4.3404 50.8068,4.6272 C51.0924,4.914 51.3144,5.2524 51.474,5.6436 C51.6324,6.0348 51.7116,6.4644 51.7116,6.93 C51.7116,7.3956 51.6324,7.8252 51.474,8.2176 C51.3156,8.6088 51.0936,8.9472 50.8068,9.234 C50.52,9.5208 50.1816,9.7416 49.7904,9.9012 C49.3992,10.0596 48.9696,10.1388 48.504,10.1388 C48.0384,10.1388 47.6064,10.0596 47.2104,9.9012 C46.8144,9.7428 46.476,9.5208 46.194,9.234 C45.9132,8.9484 45.6924,8.6088 45.534,8.2176 C45.3756,7.8252 45.2964,7.3956 45.2964,6.93 Z M46.0884,6.93 C46.0884,7.2732 46.1436,7.5972 46.254,7.9008 C46.3632,8.2044 46.5252,8.4684 46.7352,8.6928 C46.9464,8.9172 47.202,9.0948 47.5008,9.2268 C47.7996,9.3588 48.1344,9.4248 48.504,9.4248 C48.8736,9.4248 49.2072,9.3588 49.5072,9.2268 C49.806,9.0948 50.0616,8.916 50.2728,8.6928 C50.484,8.4684 50.6448,8.2044 50.754,7.9008 C50.8632,7.5972 50.9184,7.2744 50.9184,6.93 C50.9184,6.5856 50.8632,6.2628 50.754,5.9592 C50.6436,5.6556 50.4828,5.3916 50.2728,5.1672 C50.0616,4.9428 49.806,4.764 49.5072,4.632 C49.2072,4.5 48.8736,4.434 48.504,4.434 C48.1344,4.434 47.7996,4.5 47.5008,4.632 C47.2008,4.764 46.9464,4.9428 46.7352,5.1672 C46.524,5.3916 46.3632,5.6556 46.254,5.9592 C46.1424,6.2628 46.0884,6.5868 46.0884,6.93 Z" id="Shape"></path>
                            <path d="M53.1504,5.5968 C53.1504,5.4828 53.1456,5.3436 53.1372,5.1804 C53.1288,5.0172 53.1216,4.8528 53.1168,4.6848 C53.112,4.518 53.106,4.3608 53.0964,4.2168 C53.088,4.0716 53.0832,3.9588 53.0832,3.8796 L53.8752,3.8796 C53.8836,4.1088 53.8908,4.3284 53.8956,4.5396 C53.8992,4.7508 53.9112,4.8876 53.928,4.9488 L53.9676,4.9488 C54.126,4.614 54.39,4.326 54.7596,4.0836 C55.1292,3.8412 55.56,3.7212 56.0532,3.7212 C56.5284,3.7212 56.916,3.7956 57.2148,3.9456 C57.5136,4.0956 57.7488,4.2912 57.9204,4.5324 C58.092,4.7736 58.2108,5.0544 58.2768,5.3712 C58.3428,5.688 58.3764,6.0132 58.3764,6.348 L58.3764,9.978 L57.5844,9.978 L57.5844,6.3876 C57.5844,6.1416 57.5616,5.9016 57.5184,5.6688 C57.4752,5.436 57.3972,5.226 57.288,5.0424 C57.1776,4.8576 57.024,4.71 56.826,4.5996 C56.628,4.4892 56.3712,4.434 56.0532,4.434 C55.7628,4.434 55.488,4.4844 55.2276,4.5852 C54.9684,4.686 54.744,4.8408 54.5544,5.0472 C54.3648,5.2536 54.216,5.514 54.1056,5.826 C53.9952,6.138 53.94,6.5052 53.94,6.9276 L53.94,9.9768 L53.148,9.9768 L53.148,5.5968 L53.1504,5.5968 Z" id="Path"></path>
                            <path d="M64.8984,7.4184 C64.8984,7.7172 64.8996,7.986 64.9044,8.2236 C64.908,8.4612 64.9152,8.6808 64.9248,8.8836 C64.9332,9.0864 64.9452,9.276 64.9572,9.4512 C64.9704,9.6264 64.9896,9.8028 65.0172,9.9792 L64.278,9.9792 C64.2252,9.6804 64.1988,9.3504 64.1988,8.9892 L64.1724,8.9892 C63.9432,9.3852 63.66,9.6756 63.3216,9.8604 C62.982,10.0452 62.5536,10.1376 62.034,10.1376 C61.77,10.1376 61.5096,10.1052 61.2552,10.038 C60.9996,9.972 60.7716,9.8664 60.5688,9.7212 C60.366,9.576 60.2004,9.3888 60.0732,9.1596 C59.946,8.9316 59.8812,8.6544 59.8812,8.328 C59.8812,7.8612 60,7.4916 60.2376,7.2192 C60.4752,6.9456 60.768,6.7416 61.116,6.6048 C61.464,6.468 61.8324,6.3804 62.2248,6.3408 C62.616,6.3012 62.9616,6.2808 63.2604,6.2808 L64.1844,6.2808 L64.1844,5.9112 C64.1844,5.3832 64.0212,5.0052 63.696,4.776 C63.3708,4.548 62.9616,4.4328 62.4684,4.4328 C61.764,4.4328 61.1436,4.662 60.6072,5.1192 L60.1452,4.578 C60.4356,4.2972 60.7956,4.0824 61.2276,3.9372 C61.6584,3.792 62.0724,3.72 62.4684,3.72 C63.2076,3.72 63.7968,3.894 64.2372,4.242 C64.6776,4.59 64.8972,5.1504 64.8972,5.9244 L64.8972,7.4184 L64.8984,7.4184 Z M63.3144,6.9168 C62.9796,6.9168 62.6568,6.9384 62.3448,6.9828 C62.0316,7.0272 61.7508,7.1016 61.5,7.2072 C61.2492,7.3128 61.0488,7.4544 60.9,7.6296 C60.75,7.806 60.6756,8.0256 60.6756,8.2896 C60.6756,8.4744 60.7176,8.64 60.8004,8.7852 C60.8832,8.9304 60.9924,9.0492 61.1244,9.1416 C61.2564,9.234 61.4028,9.3048 61.566,9.3528 C61.7292,9.402 61.8936,9.426 62.0616,9.426 C62.484,9.426 62.832,9.3648 63.1044,9.2412 C63.3768,9.1176 63.5952,8.958 63.7572,8.76 C63.9192,8.562 64.032,8.3376 64.0944,8.0868 C64.1556,7.836 64.1868,7.584 64.1868,7.3284 L64.1868,6.9192 L63.3144,6.9192 L63.3144,6.9168 Z" id="Shape"></path>
                            <polygon id="Path" points="66.8136 0 67.6056 0 67.6056 9.9792 66.8136 9.9792"></polygon>
                            <path d="M79.4844,6.402 C79.4844,6.9036 79.4268,7.3836 79.3116,7.8408 C79.1976,8.2992 79.0068,8.7036 78.7368,9.0552 C78.4692,9.4068 78.1164,9.6888 77.682,9.9 C77.2464,10.1112 76.7112,10.2168 76.0776,10.2168 C75.444,10.2168 74.9088,10.1112 74.4732,9.9 C74.0376,9.6888 73.686,9.4068 73.4172,9.0552 C73.1484,8.7036 72.9576,8.2992 72.8424,7.8408 C72.7284,7.3836 72.6708,6.9036 72.6708,6.402 L72.6708,0.6336 L73.542,0.6336 L73.542,6.1776 C73.542,6.5124 73.5732,6.8688 73.6344,7.2468 C73.6956,7.6248 73.8156,7.9764 73.9968,8.3028 C74.178,8.6292 74.4324,8.8968 74.7636,9.108 C75.0936,9.3192 75.5316,9.4248 76.0776,9.4248 C76.6224,9.4248 77.0604,9.3192 77.3916,9.108 C77.7204,8.8968 77.976,8.6292 78.1572,8.3028 C78.336,7.9776 78.4584,7.626 78.5196,7.2468 C78.582,6.8688 78.6132,6.5124 78.6132,6.1776 L78.6132,0.6336 L79.4844,0.6336 L79.4844,6.402 L79.4844,6.402 Z" id="Path"></path>
                            <path d="M81.3324,8.4216 C81.4992,8.7468 81.7464,8.9964 82.0704,9.168 C82.3956,9.3396 82.7412,9.4248 83.1012,9.4248 C83.268,9.4248 83.4336,9.3984 83.6028,9.3456 C83.7696,9.2928 83.9196,9.2184 84.0504,9.1212 C84.1824,9.024 84.2904,8.9076 84.3744,8.7708 C84.4584,8.634 84.4992,8.478 84.4992,8.3016 C84.4992,8.0196 84.4092,7.8084 84.228,7.668 C84.0468,7.5276 83.826,7.4172 83.562,7.338 C83.2968,7.2588 83.0064,7.1904 82.6896,7.134 C82.3728,7.0776 82.0824,6.9888 81.8172,6.87 C81.5544,6.7512 81.3324,6.5856 81.1512,6.3744 C80.9712,6.1632 80.88,5.8644 80.88,5.4768 C80.88,5.178 80.9424,4.9176 81.0636,4.698 C81.1884,4.4784 81.348,4.296 81.546,4.1496 C81.7428,4.0044 81.966,3.8964 82.212,3.8256 C82.458,3.7548 82.7088,3.72 82.9644,3.72 C83.466,3.72 83.8992,3.8124 84.2652,3.9972 C84.6312,4.182 84.9144,4.4724 85.116,4.8684 L84.4032,5.2908 C84.2532,5.0088 84.0672,4.7952 83.8428,4.65 C83.6172,4.5048 83.3244,4.4316 82.9644,4.4316 C82.824,4.4316 82.6764,4.4544 82.524,4.4976 C82.3692,4.542 82.2312,4.6032 82.1064,4.6824 C81.9828,4.7616 81.8808,4.8624 81.7968,4.986 C81.7128,5.1096 81.6708,5.25 81.6708,5.4084 C81.6708,5.682 81.762,5.8836 81.9432,6.0156 C82.1232,6.1476 82.3452,6.2508 82.6092,6.3252 C82.8744,6.3996 83.1648,6.4644 83.4816,6.5172 C83.7984,6.57 84.0888,6.6552 84.354,6.774 C84.6168,6.8928 84.8388,7.0644 85.02,7.2888 C85.2012,7.5132 85.2912,7.8324 85.2912,8.2452 C85.2912,8.562 85.2312,8.8368 85.1136,9.0708 C84.996,9.3048 84.8316,9.4992 84.6252,9.6576 C84.4188,9.816 84.1836,9.9348 83.9196,10.014 C83.6544,10.0932 83.3784,10.1328 83.088,10.1328 C82.5612,10.1328 82.0776,10.032 81.642,9.8292 C81.2076,9.6276 80.8704,9.3144 80.6328,8.892 L81.3324,8.4216 Z" id="Path"></path>
                            <path d="M91.3512,7.4184 C91.3512,7.7172 91.3524,7.986 91.3572,8.2236 C91.3608,8.4612 91.368,8.6808 91.3776,8.8836 C91.3872,9.0864 91.398,9.276 91.41,9.4512 C91.4244,9.6264 91.4424,9.8028 91.47,9.9792 L90.7308,9.9792 C90.678,9.6804 90.6516,9.3504 90.6516,8.9892 L90.6264,8.9892 C90.3972,9.3852 90.1128,9.6756 89.7756,9.8604 C89.436,10.0452 89.0064,10.1376 88.488,10.1376 C88.224,10.1376 87.9636,10.1052 87.7092,10.038 C87.4536,9.972 87.2268,9.8664 87.024,9.7212 C86.8212,9.576 86.6556,9.3888 86.5284,9.1596 C86.4024,8.9316 86.3376,8.6544 86.3376,8.328 C86.3376,7.8612 86.4564,7.4916 86.694,7.2192 C86.9316,6.9456 87.2244,6.7416 87.5712,6.6048 C87.9192,6.468 88.2888,6.3804 88.68,6.3408 C89.0712,6.3012 89.418,6.2808 89.7156,6.2808 L90.6408,6.2808 L90.6408,5.9112 C90.6408,5.3832 90.4776,5.0052 90.1524,4.776 C89.8272,4.548 89.4192,4.4328 88.926,4.4328 C88.2216,4.4328 87.6012,4.662 87.0636,5.1192 L86.6016,4.578 C86.892,4.2972 87.2532,4.0824 87.684,3.9372 C88.1148,3.792 88.5288,3.72 88.9248,3.72 C89.664,3.72 90.252,3.894 90.6936,4.242 C91.134,4.59 91.3548,5.1504 91.3548,5.9244 L91.3548,7.4184 L91.3512,7.4184 Z M89.7672,6.9168 C89.4324,6.9168 89.1084,6.9384 88.7964,6.9828 C88.4832,7.0272 88.2024,7.1016 87.9516,7.2072 C87.7008,7.3128 87.5004,7.4544 87.3504,7.6296 C87.2004,7.806 87.126,8.0256 87.126,8.2896 C87.126,8.4744 87.1668,8.64 87.2508,8.7852 C87.3336,8.9304 87.4428,9.0492 87.5748,9.1416 C87.7056,9.234 87.8532,9.3048 88.0164,9.3528 C88.1796,9.402 88.344,9.426 88.512,9.426 C88.9344,9.426 89.2812,9.3648 89.5548,9.2412 C89.8272,9.1176 90.0444,8.958 90.2076,8.76 C90.3708,8.562 90.4824,8.3376 90.5436,8.0868 C90.6048,7.836 90.636,7.584 90.636,7.3284 L90.636,6.9192 L89.7672,6.9192 L89.7672,6.9168 Z" id="Shape"></path>
                            <path d="M92.9616,0 L93.7536,0 L93.7536,4.95 L93.7788,4.95 C93.9024,4.7388 94.0548,4.5564 94.2408,4.4016 C94.4268,4.2468 94.6248,4.1196 94.842,4.0188 C95.0568,3.918 95.2836,3.8424 95.5212,3.7944 C95.7588,3.7452 95.9916,3.7212 96.2208,3.7212 C96.6876,3.7212 97.116,3.8004 97.5072,3.9588 C97.8984,4.1172 98.238,4.3392 98.5248,4.626 C98.8116,4.9128 99.0324,5.2512 99.1908,5.6424 C99.3504,6.0336 99.4284,6.4632 99.4284,6.9288 C99.4284,7.3944 99.3504,7.824 99.1908,8.2164 C99.0324,8.6076 98.8116,8.946 98.5248,9.2328 C98.238,9.5196 97.8996,9.7404 97.5072,9.9 C97.116,10.0584 96.6864,10.1376 96.2208,10.1376 C95.9916,10.1376 95.7588,10.1136 95.5212,10.0644 C95.2836,10.0164 95.0556,9.9408 94.842,9.84 C94.6248,9.7392 94.4256,9.612 94.2408,9.4572 C94.056,9.3036 93.9024,9.1212 93.7788,8.9088 L93.7536,8.9088 L93.7536,9.978 L92.9616,9.978 L92.9616,0 Z M93.6744,6.93 C93.6744,7.2732 93.7404,7.5972 93.8724,7.9008 C94.0044,8.2044 94.1856,8.4684 94.4124,8.6928 C94.6416,8.9172 94.9104,9.0948 95.2188,9.2268 C95.526,9.3588 95.8608,9.4248 96.222,9.4248 C96.5928,9.4248 96.9252,9.3588 97.2252,9.2268 C97.524,9.0948 97.7796,8.916 97.992,8.6928 C98.2032,8.4684 98.3628,8.2044 98.472,7.9008 C98.5812,7.5972 98.6376,7.2744 98.6376,6.93 C98.6376,6.5856 98.5824,6.2628 98.472,5.9592 C98.3616,5.6556 98.202,5.3916 97.992,5.1672 C97.7796,4.9428 97.524,4.764 97.2252,4.632 C96.9252,4.5 96.5928,4.434 96.222,4.434 C95.8608,4.434 95.526,4.5 95.2188,4.632 C94.9104,4.764 94.6428,4.9428 94.4124,5.1672 C94.1856,5.3916 94.0044,5.6556 93.8724,5.9592 C93.7404,6.2628 93.6744,6.5868 93.6744,6.93 Z" id="Shape"></path>
                            <path d="M100.8012,1.4652 C100.8012,1.2984 100.8576,1.158 100.9728,1.0428 C101.088,0.9276 101.2284,0.8712 101.3952,0.8712 C101.5632,0.8712 101.7048,0.9288 101.8188,1.0428 C101.9328,1.1568 101.9916,1.2972 101.9916,1.4652 C101.9916,1.6332 101.9328,1.7736 101.8188,1.8876 C101.7048,2.0028 101.5632,2.0592 101.3952,2.0592 C101.2284,2.0592 101.088,2.0028 100.9728,1.8876 C100.8576,1.7724 100.8012,1.632 100.8012,1.4652 Z M100.9992,3.8808 L101.79,3.8808 L101.79,9.9792 L100.9992,9.9792 L100.9992,3.8808 Z" id="Shape"></path>
                            <polygon id="Path" points="103.8384 0 104.6292 0 104.6292 9.9792 103.8384 9.9792"></polygon>
                            <path d="M106.4904,1.4652 C106.4904,1.2984 106.548,1.158 106.662,1.0428 C106.776,0.9276 106.9176,0.8712 107.0856,0.8712 C107.2524,0.8712 107.3928,0.9288 107.508,1.0428 C107.6232,1.1568 107.6796,1.2972 107.6796,1.4652 C107.6796,1.6332 107.6232,1.7736 107.508,1.8876 C107.3928,2.0028 107.2524,2.0592 107.0856,2.0592 C106.9176,2.0592 106.776,2.0028 106.662,1.8876 C106.548,1.7724 106.4904,1.632 106.4904,1.4652 Z M106.6896,3.8808 L107.4816,3.8808 L107.4816,9.9792 L106.6896,9.9792 L106.6896,3.8808 Z" id="Shape"></path>
                            <path d="M112.3776,4.5936 L110.6364,4.5936 L110.6364,8.5668 C110.6364,8.8392 110.7108,9.0504 110.8608,9.2004 C111.0096,9.3504 111.2172,9.4248 111.4812,9.4248 C111.6312,9.4248 111.7836,9.4044 111.9372,9.3648 C112.0908,9.3252 112.2384,9.2748 112.3788,9.2136 L112.4448,9.9264 C112.296,9.9792 112.1232,10.0272 111.9312,10.0716 C111.7368,10.116 111.5652,10.1376 111.4152,10.1376 C111.1344,10.1376 110.8908,10.0956 110.6892,10.0128 C110.4876,9.93 110.3244,9.8172 110.202,9.6768 C110.0772,9.5364 109.9884,9.3708 109.9308,9.1812 C109.8732,8.9916 109.8456,8.7876 109.8456,8.568 L109.8456,4.5948 L108.5244,4.5948 L108.5244,3.882 L109.8456,3.882 L109.8456,2.1252 L110.6376,2.1252 L110.6376,3.8808 L112.3788,3.8808 L112.3788,4.5936 L112.3776,4.5936 Z" id="Path"></path>
                            <path d="M115.176,11.8668 C115.026,12.2628 114.8196,12.5748 114.5556,12.804 C114.2916,13.032 113.94,13.1472 113.4996,13.1472 C113.3688,13.1472 113.2344,13.1364 113.1036,13.1136 C112.9728,13.092 112.8432,13.0644 112.722,13.0296 L112.8,12.2892 C112.914,12.324 113.0304,12.3588 113.1504,12.3888 C113.2692,12.42 113.3892,12.4344 113.5128,12.4344 C113.6532,12.4344 113.7792,12.4044 113.8884,12.3432 C113.9988,12.2808 114.0936,12.2028 114.1716,12.1056 C114.2508,12.0084 114.3192,11.9004 114.3768,11.7816 C114.4344,11.6628 114.4848,11.5416 114.528,11.4192 L115.0836,10.0056 L112.602,3.8808 L113.4852,3.8808 L115.506,9.0156 L117.4728,3.8808 L118.3188,3.8808 L115.176,11.8668 Z" id="Path"></path>
                            <path d="M127.0824,7.4184 C127.0824,7.7172 127.0848,7.986 127.0896,8.2236 C127.0932,8.4612 127.1004,8.6808 127.1088,8.8836 C127.1184,9.0864 127.1304,9.276 127.1412,9.4512 C127.1556,9.6264 127.1736,9.8028 127.2024,9.9792 L126.462,9.9792 C126.4104,9.6804 126.384,9.3504 126.384,8.9892 L126.3576,8.9892 C126.1296,9.3852 125.8452,9.6756 125.5068,9.8604 C125.1672,10.0452 124.7376,10.1376 124.2204,10.1376 C123.9552,10.1376 123.6948,10.1052 123.4416,10.038 C123.186,9.972 122.958,9.8664 122.7564,9.7212 C122.5524,9.576 122.388,9.3888 122.2608,9.1596 C122.1336,8.9316 122.07,8.6544 122.07,8.328 C122.07,7.8612 122.1888,7.4916 122.4264,7.2192 C122.6628,6.9456 122.9556,6.7416 123.3036,6.6048 C123.6516,6.468 124.02,6.3804 124.4124,6.3408 C124.8036,6.3012 125.1492,6.2808 125.448,6.2808 L126.3732,6.2808 L126.3732,5.9112 C126.3732,5.3832 126.2088,5.0052 125.8848,4.776 C125.5596,4.548 125.1504,4.4328 124.6584,4.4328 C123.9528,4.4328 123.3336,4.662 122.796,5.1192 L122.334,4.578 C122.6232,4.2972 122.9844,4.0824 123.4152,3.9372 C123.846,3.792 124.2612,3.72 124.6572,3.72 C125.3952,3.72 125.9844,3.894 126.4248,4.242 C126.8652,4.59 127.086,5.1504 127.086,5.9244 L127.086,7.4184 L127.0824,7.4184 Z M125.4972,6.9168 C125.1624,6.9168 124.8396,6.9384 124.5264,6.9828 C124.2144,7.0272 123.9336,7.1016 123.6828,7.2072 C123.432,7.3128 123.2304,7.4544 123.0816,7.6296 C122.9316,7.806 122.8572,8.0256 122.8572,8.2896 C122.8572,8.4744 122.898,8.64 122.982,8.7852 C123.066,8.9304 123.174,9.0492 123.306,9.1416 C123.438,9.234 123.5844,9.3048 123.7488,9.3528 C123.9108,9.402 124.0764,9.426 124.2432,9.426 C124.6656,9.426 125.0136,9.3648 125.286,9.2412 C125.5584,9.1176 125.7756,8.958 125.94,8.76 C126.102,8.562 126.2148,8.3376 126.276,8.0868 C126.3372,7.836 126.3684,7.584 126.3684,7.3284 L126.3684,6.9192 L125.4972,6.9192 L125.4972,6.9168 Z" id="Shape"></path>
                            <path d="M128.8632,5.5968 C128.8632,5.4828 128.8584,5.3436 128.8512,5.1804 C128.8416,5.0172 128.8344,4.8528 128.8296,4.6848 C128.8248,4.518 128.8188,4.3608 128.8104,4.2168 C128.8008,4.0716 128.796,3.9588 128.796,3.8796 L129.588,3.8796 C129.5976,4.1088 129.6036,4.3284 129.6084,4.5396 C129.612,4.7508 129.624,4.8876 129.6408,4.9488 L129.6804,4.9488 C129.8388,4.614 130.104,4.326 130.4724,4.0836 C130.8408,3.8412 131.2728,3.7212 131.7648,3.7212 C132.24,3.7212 132.6276,3.7956 132.9276,3.9456 C133.2264,4.0956 133.4616,4.2912 133.6332,4.5324 C133.806,4.7748 133.9236,5.0544 133.9896,5.3712 C134.0568,5.688 134.0892,6.0132 134.0892,6.348 L134.0892,9.978 L133.2984,9.978 L133.2984,6.3876 C133.2984,6.1416 133.2744,5.9016 133.2312,5.6688 C133.188,5.436 133.11,5.226 133.0008,5.0424 C132.8904,4.8576 132.7356,4.71 132.5388,4.5996 C132.3396,4.4892 132.0828,4.434 131.7648,4.434 C131.4756,4.434 131.1996,4.4844 130.9392,4.5852 C130.68,4.686 130.4568,4.8408 130.266,5.0472 C130.0752,5.2536 129.9276,5.514 129.8184,5.826 C129.708,6.138 129.6516,6.5052 129.6516,6.9276 L129.6516,9.9768 L128.8596,9.9768 L128.8596,5.5968 L128.8632,5.5968 Z" id="Path"></path>
                            <path d="M141.2064,8.91 L141.18,8.91 C141.0564,9.1212 140.904,9.3048 140.718,9.4584 C140.5332,9.612 140.334,9.7404 140.118,9.8412 C139.902,9.942 139.6752,10.0176 139.4388,10.0656 C139.2,10.1148 138.9672,10.1388 138.738,10.1388 C138.2712,10.1388 137.8404,10.0596 137.4444,9.9012 C137.0484,9.7428 136.7112,9.5208 136.428,9.234 C136.1472,8.9484 135.9264,8.6088 135.768,8.2176 C135.6096,7.8252 135.5316,7.3968 135.5316,6.93 C135.5316,6.4632 135.6096,6.0348 135.768,5.6436 C135.9264,5.2512 136.146,4.9128 136.428,4.6272 C136.71,4.3416 137.0484,4.1196 137.4444,3.96 C137.8404,3.8016 138.2712,3.7224 138.738,3.7224 C138.9672,3.7224 139.2,3.7464 139.4388,3.7956 C139.6752,3.8436 139.9032,3.9192 140.118,4.02 C140.334,4.1208 140.5332,4.248 140.718,4.4028 C140.9028,4.5576 141.0564,4.7388 141.18,4.9512 L141.2064,4.9512 L141.2064,0.0012 L141.9972,0.0012 L141.9972,9.9804 L141.2064,9.9804 L141.2064,8.91 Z M141.2856,6.93 C141.2856,6.5868 141.2196,6.2628 141.0888,5.9592 C140.9568,5.6556 140.7756,5.3916 140.5476,5.1672 C140.3184,4.9428 140.0496,4.764 139.7412,4.632 C139.434,4.5 139.0992,4.434 138.738,4.434 C138.3684,4.434 138.0348,4.5 137.7348,4.632 C137.436,4.764 137.1816,4.9428 136.9692,5.1672 C136.758,5.3916 136.5972,5.6556 136.488,5.9592 C136.3788,6.2628 136.3224,6.5856 136.3224,6.93 C136.3224,7.2744 136.3776,7.5972 136.488,7.9008 C136.5984,8.2044 136.7592,8.4684 136.9692,8.6928 C137.1816,8.9172 137.436,9.0948 137.7348,9.2268 C138.0348,9.3588 138.3684,9.4248 138.738,9.4248 C139.0992,9.4248 139.434,9.3588 139.7412,9.2268 C140.0496,9.0948 140.3172,8.916 140.5476,8.6928 C140.7756,8.4684 140.9568,8.2044 141.0888,7.9008 C141.2196,7.596 141.2856,7.2732 141.2856,6.93 Z" id="Shape"></path>
                        </g>
                    </g>
                    <g id="UXQB-Signet" fill-rule="nonzero">
                        <path d="M38.4048,0.2064 L67.3524,24.3132 C67.3524,24.3132 17.1372,33.6384 30.984,26.7516 C44.8284,19.8696 38.4048,0.2064 38.4048,0.2064 Z" id="p-red" fill="#D65E28"></path>
                        <path d="M89.3652,28.1352 L73.7568,62.4192 C73.7568,62.4192 51.5076,16.446 61.8024,27.984 C72.0984,39.522 89.3652,28.1352 89.3652,28.1352 Z" id="p-orange" fill="#F19533"></path>
                        <path d="M75.6636,84.1908 L38.5176,77.9208 C38.5176,77.9208 77.226,44.598 68.724,57.5136 C60.2184,70.4292 75.6636,84.1908 75.6636,84.1908 Z" id="p-green" fill="#D2D828"></path>
                        <path d="M24.1284,89.4036 L12.1248,53.6952 C12.1248,53.6952 59.7696,72.096 44.3712,70.6944 C28.974,69.2928 24.1284,89.4036 24.1284,89.4036 Z" id="p-blue" fill="#459393"></path>
                        <path d="M0.3528,45.5952 L28.5972,20.6688 C28.5972,20.6688 30.1404,71.7204 25.4544,56.988 C20.7636,42.2496 0.3528,45.5952 0.3528,45.5952 Z" id="p-purple" fill="#624595"></path>
                    </g>
                    <g id="UXQB" stroke-width="1" fill-rule="evenodd" transform="translate(88.800000, 50.400000)" fill="#000000">
                        <path d="M27.5712,21.06 C27.5712,22.9452 27.2868,24.6828 26.718,26.2692 C26.1492,27.8568 25.3032,29.2344 24.1812,30.4008 C23.058,31.5684 21.6576,32.4816 19.9812,33.1404 C18.3048,33.798 16.3728,34.128 14.1876,34.128 C11.9712,34.128 10.026,33.798 8.3496,33.1404 C6.6732,32.4816 5.2728,31.5672 4.1496,30.4008 C3.0264,29.2344 2.1804,27.8568 1.6128,26.2692 C1.044,24.6828 0.7596,22.9452 0.7596,21.06 L0.7596,1.524 L7.7652,1.524 L7.7652,20.7912 C7.7652,21.7788 7.9224,22.6932 8.2368,23.5308 C8.5512,24.3684 8.9928,25.0956 9.5616,25.7076 C10.1304,26.322 10.812,26.8008 11.6052,27.1452 C12.3984,27.4896 13.2588,27.6612 14.1876,27.6612 C15.1152,27.6612 15.9684,27.4896 16.7472,27.1452 C17.5248,26.8008 18.198,26.3208 18.768,25.7076 C19.3368,25.0944 19.7784,24.3684 20.0928,23.5308 C20.4072,22.6932 20.5644,21.7788 20.5644,20.7912 L20.5644,1.524 L27.57,1.524 L27.57,21.06 L27.5712,21.06 Z" id="U" fill-rule="nonzero"></path>
                        <polygon id="X" fill-rule="nonzero" points="41.9424 16.7028 31.434 1.524 40.236 1.524 47.0172 12.6612 53.5308 1.524 62.0184 1.524 51.7332 16.5684 63.2304 33.3204 54.4296 33.3204 46.6596 20.5212 39.1152 33.3204 30.8064 33.3204"></polygon>
                        <path d="M101.2692,33.3204 L82.0008,33.3204 C79.5168,33.3204 77.22,32.9532 75.108,32.22 C72.996,31.4868 71.178,30.4164 69.6516,29.0088 C68.124,27.6012 66.9264,25.8948 66.0588,23.8884 C65.1888,21.8832 64.7556,19.5924 64.7556,17.0172 C64.7556,14.622 65.1984,12.4212 66.0816,10.4148 C66.9624,8.4096 68.1696,6.6876 69.696,5.25 C71.2236,3.8136 73.02,2.6976 75.084,1.9044 C77.1516,1.1112 79.3656,0.714 81.7308,0.714 C84.096,0.714 86.3124,1.1184 88.3776,1.9272 C90.4452,2.736 92.2404,3.858 93.768,5.2956 C95.2932,6.7332 96.498,8.448 97.3824,10.4376 C98.2656,12.4296 98.7072,14.622 98.7072,17.0172 C98.7072,18.1548 98.5812,19.2624 98.328,20.3412 C98.0724,21.4176 97.6908,22.4364 97.182,23.3952 C96.6732,24.354 96.0144,25.2144 95.2068,25.9764 C94.398,26.7408 93.4536,27.3612 92.3784,27.8412 L92.3784,27.93 L101.2704,27.93 L101.2704,33.3204 L101.2692,33.3204 Z M72.03,17.0184 C72.03,18.3948 72.2856,19.6836 72.7944,20.88 C73.3032,22.0788 73.9992,23.1192 74.8824,24.0024 C75.7656,24.8856 76.7928,25.5816 77.9592,26.0904 C79.1268,26.6004 80.3832,26.8536 81.7308,26.8536 C83.0784,26.8536 84.3372,26.6004 85.5048,26.0904 C86.6724,25.5816 87.6984,24.8856 88.5792,24.0024 C89.4624,23.1204 90.1584,22.0788 90.6672,20.88 C91.1784,19.6836 91.4316,18.396 91.4316,17.0184 C91.4316,15.6408 91.1784,14.3532 90.6672,13.1556 C90.1584,11.958 89.4624,10.9176 88.5792,10.0332 C87.6984,9.1512 86.6712,8.4552 85.5048,7.9452 C84.3372,7.4364 83.0796,7.182 81.7308,7.182 C80.382,7.182 79.1268,7.4364 77.9592,7.9452 C76.7916,8.4552 75.7656,9.1512 74.8824,10.0332 C73.9992,10.9164 73.3032,11.958 72.7944,13.1556 C72.2856,14.3532 72.03,15.6408 72.03,17.0184 Z" id="Q" fill-rule="nonzero"></path>
                        <path d="M104.7252,1.524 L116.5824,1.524 C117.9576,1.524 119.3436,1.6212 120.7356,1.8156 C122.1276,2.0112 123.3768,2.4 124.4856,2.9844 C125.592,3.5676 126.492,4.3836 127.1808,5.4312 C127.8672,6.48 128.2116,7.872 128.2116,9.6072 C128.2116,11.4036 127.71,12.894 126.7068,14.0772 C125.7036,15.2604 124.38,16.1052 122.7336,16.614 L122.7336,16.7028 C123.7812,16.854 124.7304,17.1456 125.5836,17.5788 C126.4392,18.012 127.17,18.5664 127.7844,19.2408 C128.3988,19.9152 128.8692,20.7 129.2004,21.5988 C129.528,22.4964 129.6948,23.4552 129.6948,24.4728 C129.6948,26.1492 129.3336,27.5484 128.6172,28.6728 C127.8972,29.796 126.9696,30.7008 125.8332,31.3896 C124.6944,32.0784 123.414,32.5728 121.9944,32.8716 C120.5712,33.1704 119.1564,33.3204 117.75,33.3204 L104.7252,33.3204 L104.7252,1.524 Z M111.7308,14.2332 L116.8056,14.2332 C117.3444,14.2332 117.8772,14.1732 118.4016,14.0532 C118.9248,13.9344 119.3952,13.7388 119.8152,13.47 C120.2352,13.2012 120.5724,12.8424 120.8256,12.3924 C121.0812,11.9436 121.2072,11.4048 121.2072,10.776 C121.2072,10.1172 121.0644,9.5712 120.7812,9.1368 C120.498,8.7036 120.1296,8.3652 119.682,8.1264 C119.232,7.8876 118.7232,7.7148 118.1544,7.6092 C117.5844,7.5048 117.0312,7.452 116.4924,7.452 L111.732,7.452 L111.732,14.2332 L111.7308,14.2332 Z M111.7308,27.3912 L118.0188,27.3912 C118.5576,27.3912 119.1036,27.3312 119.6568,27.2124 C120.21,27.0936 120.7116,26.8836 121.1616,26.5848 C121.6116,26.2848 121.9776,25.896 122.2608,25.416 C122.5464,24.9384 122.6892,24.354 122.6892,23.6652 C122.6892,22.9164 122.502,22.3104 122.1264,21.8448 C121.752,21.3816 121.2804,21.03 120.7104,20.79 C120.1428,20.5512 119.5296,20.3856 118.8708,20.2956 C118.212,20.2068 117.5976,20.1612 117.0288,20.1612 L111.7296,20.1612 L111.7296,27.3912 L111.7308,27.3912 Z" id="B" fill-rule="nonzero"></path>
                    </g>
                </g>
            </g>
        </g>
    </g>
</svg>