<?xml version="1.0" encoding="utf-8"?>
<!-- Generator: Adobe Illustrator 24.2.3, SVG Export Plug-In . SVG Version: 6.00 Build 0)  -->
<svg version="1.1" id="Layer_1" xmlns="http://www.w3.org/2000/svg" xmlns:xlink="http://www.w3.org/1999/xlink" x="0px" y="0px"
	 viewBox="0 0 465.1 474" style="enable-background:new 0 0 465.1 474;" xml:space="preserve">
<path d="M465.1,208.8c0-55.8-21.7-108.3-61.1-147.7C364.7,22.2,311.6,0.2,256.3,0c-64,0-123.7,28.9-164.7,80.4
	c-29.4,37.1-44.8,82.8-44.8,130v33.5c0,17.4-12,33.7-36,35.2C5,279.6,0,283.5,0,289.2C-1,305.1,16,334.1,39,357.1
	c15.9,16.4,34.7,29.4,54.8,39.4c-3,16.9,1.5,34.4,12.7,47.6c11,13.2,27.4,20.8,44.7,20.8c28.4,0,51.4-19.8,56.9-46.2h48.6
	c6.3,32.8,40.4,55.3,77,42.8c31.8-10.7,45.7-46.7,34.2-76.2c12.5-8.1,24.5-17.8,35.5-28.4C443.1,317.8,465.2,264.5,465.1,208.8z
	 M256.1,395h-47.6c-5.2-26.4-28.9-46.7-56.9-46.7c-20.6,0-38.6,10.7-49.1,26.4v0.5c-17.3-8.6-33.2-20.6-46.7-34.7
	c-16.4-16.4-25.6-31.3-29.3-41c10.7-2.4,20.1-8.1,27.9-16.4c10.2-10.7,15.4-25,15.4-39.4V209c0-41,13.5-81.4,38.9-113.6
	c36-46.2,89.5-72.3,147.2-72.3c49.6,0,96.3,19.3,131.5,54.3c35.2,35.2,54.3,81.9,54.3,131.5s-19.3,96.3-54.3,131.5
	C352.7,375.3,305.5,395,256.1,395L256.1,395z M372.2,162.6c0,12.7-10.3,23-23,23s-23.2-10.3-23.2-23s10.3-23.2,23.2-23.2
	C361.8,139.4,372.2,149.8,372.2,162.6z M232.6,162.6c0,12.7-10.3,23-23,23s-23.2-10.3-23.2-23s10.3-23.2,23.2-23.2
	C222.2,139.4,232.6,149.8,232.6,162.6z M216.7,238.6c-1.9-3.9-6.3-6.8-10.7-6.8c-8.5,0-14,8.6-10.7,16.4
	c14.9,31.3,46.7,53.5,84.3,53.5s69.4-21.7,84.3-53.5c3.4-7.6-1.9-16.4-10.7-16.4h-0.5c-4.4,0-8.1,2.4-10.2,6.8
	c-11,23.5-35.2,39.9-63.1,39.9C251.9,278.5,227.8,262.1,216.7,238.6z"/>
</svg>
