<svg width="30" height="31" viewBox="0 0 30 31" fill="none" xmlns="http://www.w3.org/2000/svg">
<path d="M20.8378 9.1402C20.2112 9.76678 20.2135 10.7943 20.8427 11.4236L25.4193 16.0001L20.8624 20.5571C20.2358 21.1836 20.238 22.2112 20.8673 22.8404C21.4966 23.4697 22.5241 23.4719 23.1507 22.8454L28.8469 17.1492C29.4734 16.5227 29.4712 15.4951 28.8419 14.8658L23.1212 9.14512C22.4919 8.51584 21.4644 8.51363 20.8378 9.1402Z" fill="#002C38"/>
<path d="M9.14802 22.8422C9.77459 22.2156 9.77238 21.1881 9.1431 20.5588L4.56653 15.9823L9.12344 11.4254C9.75001 10.7988 9.7478 9.77127 9.11852 9.14199C8.48924 8.51271 7.4617 8.51047 6.83512 9.13705L1.13899 14.8332C0.51241 15.4598 0.514647 16.4873 1.14393 17.1166L6.86465 22.8373C7.49393 23.4666 8.52144 23.4688 9.14802 22.8422Z" fill="#002C38"/>
<path d="M16.3517 17.7744L18.8644 8.39685C19.0947 7.53724 18.5829 6.64628 17.727 6.41694C16.871 6.18759 15.9823 6.70327 15.752 7.56288L13.2393 16.9404L16.3517 17.7744Z" fill="#002C38"/>
<path d="M13.9315 14.3565L11.4188 23.734C11.1885 24.5936 11.7003 25.4846 12.5562 25.7139C13.4122 25.9433 14.3009 25.4276 14.5312 24.568L17.0439 15.1904L13.9315 14.3565Z" fill="#002C38"/>
</svg>
