<svg width="91" height="94" viewBox="0 0 91 94" fill="none" xmlns="http://www.w3.org/2000/svg">
<path fill-rule="evenodd" clip-rule="evenodd" d="M16.4182 28.6787L25.2974 26.2134L27.6765 17.0126L17.6485 6.6214C20.1417 5.86215 22.7727 5.71975 25.3176 6.1942C28.5434 6.79558 31.6309 8.38802 34.1241 10.9715C39.1137 16.1418 40.2727 23.7783 37.6012 30.0944L61.672 55.037C67.7673 52.2687 75.1369 53.4697 80.1265 58.64C82.6198 61.2236 84.1566 64.423 84.7369 67.7658C85.1947 70.4028 85.0573 73.129 84.3245 75.7125L74.6029 65.6388L65.7237 68.1042L63.3446 77.305L73.0661 87.3786C70.5729 88.1378 67.9419 88.2803 65.397 87.8058C62.1712 87.2045 59.0837 85.612 56.5905 83.0285C51.6009 77.8581 50.4419 70.2216 53.1134 63.9055L29.0427 38.963C22.9474 41.7314 15.5777 40.5304 10.588 35.36C8.09471 32.7764 6.5579 29.5769 5.97761 26.2341C5.51983 23.5971 5.65731 20.8709 6.39004 18.2875L16.4182 28.6787ZM27.4799 45.7177C20.2034 47.4856 12.2302 45.4358 6.54735 39.5471C0.550177 33.3327 -1.31986 24.471 0.907511 16.6178L3.62243 7.04557L18.1259 22.0743L20.6316 21.3786L21.3029 18.7822L6.79935 3.75345L16.0373 0.940277C23.6159 -1.36761 32.1677 0.570196 38.1648 6.78449C43.8476 12.6731 45.8258 20.9349 44.1197 28.4749L63.2348 48.2823C70.5113 46.5144 78.4844 48.5642 84.1672 54.4529C90.1644 60.6673 92.0344 69.5289 89.8071 77.3821L87.0922 86.9544L72.8952 72.2433L70.3895 72.939L69.7182 75.5353L83.9152 90.2465L74.6774 93.0597C67.0987 95.3676 58.5469 93.4298 52.5498 87.2155C46.8669 81.3268 44.8887 73.065 46.5949 65.525L27.4799 45.7177Z" fill="#002C38"/>
</svg>
