<?xml version="1.0" encoding="utf-8"?>
<!-- Generator: Adobe Illustrator 26.5.0, SVG Export Plug-In . SVG Version: 6.00 Build 0)  -->
<svg version="1.1" id="Layer_1" xmlns="http://www.w3.org/2000/svg" xmlns:xlink="http://www.w3.org/1999/xlink" x="0px" y="0px"
	 viewBox="0 0 57.1 74.1" style="enable-background:new 0 0 57.1 74.1;" xml:space="preserve">
<style type="text/css">
	.st0{fill:#002C38;}
	.st1{fill:#002C38;stroke:#002C38;stroke-width:4;}
	.st2{fill:none;stroke:#002C38;stroke-width:4;}
</style>
<path class="st0" d="M12.2,60.1v-2.4l6.7-8.2h-6.4v-2.8H23v2.4l-6.7,8.2h7v2.8H12.2z M25.1,60.1v-2.5H27v-8.4h-1.9v-2.5H32v2.5h-1.8
	v8.4H32v2.5H25.1z M34,60.1V46.7h5.1c1.2,0,2.2,0.1,3.1,0.4c0.9,0.2,1.6,0.7,2.2,1.3c0.5,0.6,0.8,1.5,0.8,2.7c0,1.2-0.3,2.1-0.8,2.7
	c-0.5,0.6-1.2,1.1-2.2,1.3c-0.9,0.2-1.9,0.4-3.1,0.4h-2v4.6H34z M37.2,52.8h2.1c0.5,0,0.9,0,1.3-0.1c0.4-0.1,0.7-0.3,0.9-0.5
	c0.2-0.3,0.4-0.6,0.4-1.1c0-0.5-0.1-0.8-0.4-1.1c-0.2-0.3-0.5-0.4-0.9-0.5c-0.4-0.1-0.8-0.1-1.3-0.1h-2.1V52.8z"/>
<path class="st1" d="M20.9,5.8l-2.4,10.5c-0.3,1.4-1.5,2.3-2.9,2.3H5.2c-2.8,0-4.1-3.5-1.9-5.3L16.1,2.8C18.3,1,21.6,3,20.9,5.8z"/>
<path class="st2" d="M17.6,2.1h27.5c5.5,0,10,4.5,10,10v50c0,5.5-4.5,10-10,10h-33c-5.5,0-10-4.5-10-10V15.6"/>
</svg>
