<svg width="48" height="35" viewBox="0 0 48 35" fill="none" xmlns="http://www.w3.org/2000/svg">
<g clip-path="url(#clip0_223_345)">
<path d="M41.1818 34.4219H6.81818C3.05615 34.4219 0.00802139 31.3883 0 27.654V7.23865C0 3.50434 3.05615 0.470703 6.81818 0.470703H41.1818C44.9439 0.470703 47.992 3.50434 48 7.23865V27.654C48 31.3883 44.9439 34.414 41.1818 34.4219ZM6.81818 2.85939C4.37968 2.85939 2.40642 4.81812 2.40642 7.23865V27.654C2.40642 30.0745 4.37968 32.0332 6.81818 32.0332H41.1818C43.6203 32.0332 45.5936 30.0745 45.5936 27.654V7.23865C45.5936 4.81812 43.6203 2.85939 41.1818 2.85939H6.81818Z" fill="#002C38"/>
<path d="M24.0001 22.2873C22.5161 22.2873 21.0722 21.8095 19.8851 20.9257L1.15513 6.8643C0.609678 6.48211 0.481335 5.74162 0.858341 5.20018C1.24337 4.65875 1.98936 4.53135 2.53481 4.90558C2.55888 4.9215 2.58294 4.93743 2.607 4.96131L21.337 19.0386C22.9172 20.2091 25.0829 20.2091 26.6632 19.0386L45.3931 4.96131C45.9065 4.54728 46.6685 4.61894 47.0856 5.12852C47.5027 5.63811 47.4305 6.39453 46.9172 6.80857C46.8931 6.82449 46.869 6.84042 46.845 6.8643L28.115 20.9257C26.9279 21.8095 25.484 22.2873 24.0001 22.2873Z" fill="#002C38"/>
<path d="M1.67684 31.0934C1.01107 31.0934 0.473633 30.5599 0.473633 29.899C0.473633 29.5566 0.618018 29.2302 0.874702 29.0072L15.6341 15.9411C16.1314 15.5032 16.8934 15.543 17.3346 16.0367C17.7758 16.5303 17.7357 17.2867 17.2383 17.7247L2.47898 30.7908C2.2624 30.9898 1.97363 31.0934 1.67684 31.0934ZM46.3239 31.0934C46.0271 31.0934 45.7383 30.9898 45.5218 30.7908L30.7624 17.7247C30.2651 17.2867 30.225 16.5303 30.6661 16.0367C31.1073 15.543 31.8694 15.5032 32.3667 15.9411L47.118 29.0072C47.6153 29.4452 47.6555 30.2016 47.2143 30.6952C46.9817 30.95 46.6608 31.0934 46.3159 31.0934H46.3239Z" fill="#002C38"/>
</g>
<defs>
<clipPath id="clip0_223_345">
<rect width="48" height="33.9512" fill="white" transform="translate(0 0.470703)"/>
</clipPath>
</defs>
</svg>
