<svg width="14" height="19" viewBox="0 0 14 19" fill="none" xmlns="http://www.w3.org/2000/svg">
<path fill-rule="evenodd" clip-rule="evenodd" d="M13.9375 7.84834C13.9375 9.77022 13.1361 11.5077 11.8447 12.754L8.7692 17.8886C7.96023 19.2392 5.97727 19.2392 5.1683 17.8886L2.09279 12.754C0.801351 11.5077 0 9.77022 0 7.84834C0 4.05613 3.12002 0.981934 6.96875 0.981934C10.8175 0.981934 13.9375 4.05613 13.9375 7.84834ZM7.14297 10.5949C8.77868 10.5949 10.1047 9.28837 10.1047 7.67668C10.1047 6.06499 8.77868 4.75846 7.14297 4.75846C5.50726 4.75846 4.18125 6.06499 4.18125 7.67668C4.18125 9.28837 5.50726 10.5949 7.14297 10.5949Z" fill="#FFC223"/>
</svg>
