<svg width="82" height="31" viewBox="0 0 82 31" fill="none" xmlns="http://www.w3.org/2000/svg">
<path d="M0.594746 31V0.939998H12.1597C14.7697 0.939998 17.0947 1.21 19.1347 1.75C21.2047 2.29 22.8247 3.265 23.9947 4.675C25.1947 6.085 25.7947 8.11 25.7947 10.75C25.7947 13.36 25.1947 15.385 23.9947 16.825C22.8247 18.235 21.2047 19.21 19.1347 19.75C17.0947 20.29 14.7697 20.56 12.1597 20.56H7.70475V31H0.594746ZM7.70475 14.665H12.3847C13.4947 14.665 14.4847 14.56 15.3547 14.35C16.2547 14.14 16.9597 13.75 17.4697 13.18C18.0097 12.61 18.2797 11.8 18.2797 10.75C18.2797 9.7 18.0097 8.905 17.4697 8.365C16.9597 7.795 16.2547 7.42 15.3547 7.24C14.4847 7.03 13.4947 6.925 12.3847 6.925H7.70475V14.665ZM29.0337 31V0.939998H35.8737V11.65C36.3837 10.81 37.2237 10 38.3937 9.22C39.5937 8.44 41.0487 8.05 42.7587 8.05C45.6387 8.05 47.6037 8.86 48.6537 10.48C49.7337 12.07 50.2737 14.38 50.2737 17.41V31H43.4337V19.12C43.4337 18.07 43.3737 17.11 43.2537 16.24C43.1337 15.37 42.8337 14.68 42.3537 14.17C41.9037 13.63 41.1237 13.36 40.0137 13.36C38.5737 13.36 37.5237 13.885 36.8637 14.935C36.2037 15.955 35.8737 17.485 35.8737 19.525V31H29.0337ZM54.5156 31V0.939998H64.4156C66.8756 0.939998 69.1556 1.195 71.2556 1.705C73.3856 2.185 75.2306 3.01 76.7906 4.18C78.3806 5.32 79.6106 6.865 80.4806 8.815C81.3806 10.735 81.8306 13.12 81.8306 15.97C81.8306 18.85 81.3806 21.25 80.4806 23.17C79.6106 25.09 78.3806 26.635 76.7906 27.805C75.2306 28.945 73.3856 29.77 71.2556 30.28C69.1556 30.76 66.8756 31 64.4156 31H54.5156ZM61.6256 25.015H64.5506C65.8406 25.015 67.0706 24.91 68.2406 24.7C69.4406 24.49 70.5056 24.085 71.4356 23.485C72.3956 22.855 73.1456 21.94 73.6856 20.74C74.2256 19.54 74.4956 17.95 74.4956 15.97C74.4956 13.99 74.2256 12.4 73.6856 11.2C73.1456 9.97 72.3956 9.055 71.4356 8.455C70.5056 7.825 69.4406 7.405 68.2406 7.195C67.0706 6.955 65.8406 6.835 64.5506 6.835H61.6256V25.015Z" fill="#002C38"/>
</svg>
