<svg width="77" height="103" viewBox="0 0 77 103" fill="none" xmlns="http://www.w3.org/2000/svg">
<path fill-rule="evenodd" clip-rule="evenodd" d="M24.5301 0.0215319C22.9568 -0.109158 21.3007 0.348419 19.8451 1.5766L2.74488 16.0054C0.945974 17.5233 0.196355 19.5964 0.283562 21.6057H0.266113V86.3005C0.266113 95.5232 7.44523 103 16.3011 103H60.3974C69.2533 103 76.4325 95.5232 76.4325 86.3005V16.7207C76.4325 7.498 69.2533 0.0215319 60.3974 0.0215319H24.5301ZM30.6104 5.58792C30.7748 6.48365 30.7672 7.45129 30.5445 8.46313L27.3688 22.8919C26.6777 26.0318 23.9829 28.259 20.875 28.259L6.95054 28.259C6.48429 28.259 6.03724 28.2139 5.61112 28.1287V86.3005C5.61112 92.449 10.3972 97.4333 16.3011 97.4333H60.3974C66.3014 97.4333 71.0874 92.449 71.0874 86.3005V16.7207C71.0874 10.5722 66.3014 5.58792 60.3974 5.58792H30.6104ZM14.0486 46.8632C14.0486 44.1017 16.2872 41.8632 19.0486 41.8632H57.65C60.4114 41.8632 62.65 44.1017 62.65 46.8632C62.65 49.6246 60.4114 51.8632 57.65 51.8632H19.0486C16.2872 51.8632 14.0486 49.6246 14.0486 46.8632ZM19.0486 70.6586C16.2872 70.6586 14.0486 72.8971 14.0486 75.6586C14.0486 78.42 16.2872 80.6586 19.0486 80.6586H57.65C60.4114 80.6586 62.65 78.42 62.65 75.6586C62.65 72.8971 60.4114 70.6586 57.65 70.6586H19.0486ZM14.0486 61.1444C14.0486 58.383 16.2872 56.1444 19.0486 56.1444H25.7327C28.4941 56.1444 30.7327 58.383 30.7327 61.1444C30.7327 63.9058 28.4941 66.1444 25.7327 66.1444H19.0486C16.2872 66.1444 14.0486 63.9058 14.0486 61.1444ZM39.3594 56.1444C36.598 56.1444 34.3594 58.383 34.3594 61.1444C34.3594 63.9058 36.598 66.1444 39.3594 66.1444H57.6498C60.4112 66.1444 62.6498 63.9058 62.6498 61.1444C62.6498 58.383 60.4112 56.1444 57.6498 56.1444L39.3594 56.1444Z" fill="#002C38"/>
</svg>
