<svg width="193" height="150" viewBox="0 0 193 150" fill="none" xmlns="http://www.w3.org/2000/svg">
<path fill-rule="evenodd" clip-rule="evenodd" d="M187.231 92.2367C188.067 69.2762 183.75 53.5092 170.483 41.9777C157.44 30.6408 136.046 23.7032 103.717 17.2845C103.339 17.2095 102.965 17.2394 102.625 17.3541C101.683 17.5446 100.959 18.3597 100.923 19.362C100.087 42.3224 104.404 58.0895 117.671 69.621C130.714 80.9579 152.108 87.8955 184.437 94.3142C184.814 94.3892 185.188 94.3592 185.529 94.2446C186.47 94.0541 187.194 93.239 187.231 92.2367ZM179.252 83.6049C178.212 84.1525 176.926 83.7536 176.378 82.714C170.249 71.0762 164.139 64.3236 158.206 60.1208C152.274 55.9176 146.366 54.1515 140.37 52.7106C139.465 52.4929 138.551 52.2817 137.631 52.0693C132.542 50.8937 127.277 49.6774 122.235 47.0841C116.168 43.9633 110.479 38.9056 105.265 29.7901C104.682 28.7701 105.036 27.4705 106.056 26.8871C107.076 26.3038 108.376 26.6578 108.959 27.6777C113.81 36.1599 118.924 40.5965 124.181 43.3004C128.712 45.6307 133.392 46.7161 138.484 47.8973C139.43 48.1165 140.389 48.3391 141.365 48.5735C147.518 50.0522 154.062 51.9701 160.666 56.649C167.271 61.3285 173.783 68.6563 180.143 80.7312C180.69 81.7708 180.292 83.0574 179.252 83.6049Z" fill="#44D500"/>
<path d="M1.28 88V83.16L14.76 66.84H1.88V61.28H22.96V66.12L9.6 82.44H23.56V88H1.28ZM36.6838 88.48C34.5504 88.48 32.6571 88.0667 31.0038 87.24C29.3771 86.3867 28.0971 85.1733 27.1638 83.6C26.2571 82.0267 25.8038 80.1467 25.8038 77.96C25.8038 75.8533 26.2838 74.0267 27.2438 72.48C28.2304 70.9333 29.5238 69.7333 31.1238 68.88C32.7504 68.0267 34.5238 67.6 36.4438 67.6C38.6304 67.6 40.4971 68.12 42.0438 69.16C43.6171 70.1733 44.8038 71.5867 45.6038 73.4C46.4038 75.1867 46.7371 77.2533 46.6038 79.6H31.9238C32.0304 80.9867 32.5371 82.0267 33.4438 82.72C34.3771 83.4133 35.4038 83.76 36.5238 83.76C37.4571 83.76 38.2571 83.6267 38.9238 83.36C39.6171 83.0667 40.1504 82.7067 40.5238 82.28L45.3638 84.04C44.3238 85.56 43.0171 86.68 41.4438 87.4C39.8971 88.12 38.3104 88.48 36.6838 88.48ZM31.9238 76H40.9638C40.9371 74.72 40.4971 73.76 39.6438 73.12C38.7904 72.4533 37.7771 72.12 36.6037 72.12C35.4571 72.12 34.4304 72.4267 33.5238 73.04C32.6438 73.6533 32.1104 74.64 31.9238 76ZM49.5 88V68.16H54.3L55.38 71.8C55.9933 70.2 56.8333 69.08 57.9 68.44C58.9667 67.8 60.26 67.52 61.78 67.6V73.68C61.46 73.6267 61.18 73.6 60.94 73.6C60.7 73.5733 60.4333 73.56 60.14 73.56C58.6733 73.56 57.54 73.9067 56.74 74.6C55.9667 75.2933 55.58 76.4267 55.58 78V88H49.5ZM73.8628 88.48C72.0228 88.48 70.3028 88.1067 68.7028 87.36C67.1028 86.6133 65.8095 85.4667 64.8228 83.92C63.8361 82.3467 63.3428 80.3733 63.3428 78C63.3428 75.6 63.8361 73.64 64.8228 72.12C65.8095 70.5733 67.1028 69.44 68.7028 68.72C70.3028 67.9733 72.0228 67.6 73.8628 67.6C75.6761 67.6 77.3828 67.9733 78.9828 68.72C80.5828 69.44 81.8761 70.5733 82.8628 72.12C83.8495 73.64 84.3428 75.6 84.3428 78C84.3428 80.3733 83.8495 82.3467 82.8628 83.92C81.8761 85.4667 80.5828 86.6133 78.9828 87.36C77.3828 88.1067 75.6761 88.48 73.8628 88.48ZM73.8628 83.76C75.0895 83.76 76.1028 83.32 76.9028 82.44C77.7295 81.56 78.1428 80.08 78.1428 78C78.1428 75.8933 77.7161 74.4267 76.8628 73.6C76.0361 72.7467 75.0361 72.32 73.8628 72.32C72.6628 72.32 71.6361 72.7467 70.7828 73.6C69.9561 74.4267 69.5428 75.8933 69.5428 78C69.5428 80.08 69.9561 81.56 70.7828 82.44C71.6095 83.32 72.6361 83.76 73.8628 83.76ZM1.76 138V111.28H22.32V116.84H8.08V121.48H16.76V127.04H8.08V132.44H22.32V138H1.76ZM25.2031 138V118.16H30.5231L31.2831 120.8C31.7365 120.053 32.4831 119.333 33.5231 118.64C34.5631 117.947 35.8165 117.6 37.2831 117.6C38.8565 117.6 40.1098 117.88 41.0431 118.44C42.0031 119 42.7098 119.827 43.1631 120.92C43.9365 119.827 44.9098 119 46.0831 118.44C47.2831 117.88 48.5765 117.6 49.9631 117.6C52.4965 117.6 54.2431 118.32 55.2031 119.76C56.1631 121.173 56.6431 123.227 56.6431 125.92V138H50.5631V127.44C50.5631 126.507 50.5098 125.653 50.4031 124.88C50.2965 124.107 50.0298 123.493 49.6031 123.04C49.1765 122.56 48.4698 122.32 47.4831 122.32C46.2565 122.32 45.3631 122.76 44.8031 123.64C44.2431 124.493 43.9631 125.787 43.9631 127.52V138H37.8431V127.44C37.8431 126.507 37.7898 125.653 37.6831 124.88C37.6031 124.107 37.3498 123.493 36.9231 123.04C36.5231 122.56 35.8431 122.32 34.8831 122.32C33.6298 122.32 32.7098 122.773 32.1231 123.68C31.5631 124.587 31.2831 125.907 31.2831 127.64V138H25.2031ZM65.8469 114.88C64.8602 114.88 64.0069 114.533 63.2869 113.84C62.5935 113.12 62.2469 112.267 62.2469 111.28C62.2469 110.267 62.5935 109.413 63.2869 108.72C64.0069 108.027 64.8602 107.68 65.8469 107.68C66.8602 107.68 67.7135 108.027 68.4069 108.72C69.1002 109.413 69.4469 110.267 69.4469 111.28C69.4469 112.267 69.1002 113.12 68.4069 113.84C67.7135 114.533 66.8602 114.88 65.8469 114.88ZM62.7669 138V122.8H59.0069V118.16H68.8869V138H62.7669ZM81.2241 138.48C78.9041 138.48 76.8907 138.053 75.1841 137.2C73.5041 136.347 72.2774 135.093 71.5041 133.44L76.6641 131.56C76.9574 132.387 77.5174 133.013 78.3441 133.44C79.1974 133.84 80.1974 134.04 81.3441 134.04C82.3307 134.04 83.1974 133.893 83.9441 133.6C84.7174 133.28 85.1041 132.813 85.1041 132.2C85.1041 131.773 84.8774 131.413 84.4241 131.12C83.9707 130.827 83.1707 130.587 82.0241 130.4L78.4641 129.8C76.5441 129.48 74.9841 128.827 73.7841 127.84C72.5841 126.853 71.9841 125.533 71.9841 123.88C71.9841 122.493 72.3974 121.333 73.2241 120.4C74.0774 119.467 75.1974 118.773 76.5841 118.32C77.9707 117.84 79.4774 117.6 81.1041 117.6C82.9974 117.6 84.7441 117.947 86.3441 118.64C87.9707 119.307 89.1574 120.427 89.9041 122L84.7841 123.88C84.5974 123.16 84.1574 122.68 83.4641 122.44C82.7707 122.173 81.9707 122.04 81.0641 122.04C78.8774 122.04 77.7841 122.573 77.7841 123.64C77.7841 124.04 77.9707 124.373 78.3441 124.64C78.7174 124.88 79.3441 125.08 80.2241 125.24L83.9041 125.92C86.3041 126.347 88.0774 126.973 89.2241 127.8C90.3707 128.627 90.9441 129.867 90.9441 131.52C90.9441 133.067 90.5041 134.36 89.6241 135.4C88.7441 136.44 87.5707 137.213 86.1041 137.72C84.6374 138.227 83.0107 138.48 81.2241 138.48ZM102.162 138.48C99.8416 138.48 97.8282 138.053 96.1216 137.2C94.4416 136.347 93.2149 135.093 92.4416 133.44L97.6016 131.56C97.8949 132.387 98.4549 133.013 99.2816 133.44C100.135 133.84 101.135 134.04 102.282 134.04C103.268 134.04 104.135 133.893 104.882 133.6C105.655 133.28 106.042 132.813 106.042 132.2C106.042 131.773 105.815 131.413 105.362 131.12C104.908 130.827 104.108 130.587 102.962 130.4L99.4016 129.8C97.4816 129.48 95.9216 128.827 94.7216 127.84C93.5216 126.853 92.9216 125.533 92.9216 123.88C92.9216 122.493 93.3349 121.333 94.1616 120.4C95.0149 119.467 96.1349 118.773 97.5216 118.32C98.9082 117.84 100.415 117.6 102.042 117.6C103.935 117.6 105.682 117.947 107.282 118.64C108.908 119.307 110.095 120.427 110.842 122L105.722 123.88C105.535 123.16 105.095 122.68 104.402 122.44C103.708 122.173 102.908 122.04 102.002 122.04C99.8149 122.04 98.7216 122.573 98.7216 123.64C98.7216 124.04 98.9082 124.373 99.2816 124.64C99.6549 124.88 100.282 125.08 101.162 125.24L104.842 125.92C107.242 126.347 109.015 126.973 110.162 127.8C111.308 128.627 111.882 129.867 111.882 131.52C111.882 133.067 111.442 134.36 110.562 135.4C109.682 136.44 108.508 137.213 107.042 137.72C105.575 138.227 103.948 138.48 102.162 138.48ZM120.3 114.88C119.313 114.88 118.46 114.533 117.74 113.84C117.047 113.12 116.7 112.267 116.7 111.28C116.7 110.267 117.047 109.413 117.74 108.72C118.46 108.027 119.313 107.68 120.3 107.68C121.313 107.68 122.167 108.027 122.86 108.72C123.553 109.413 123.9 110.267 123.9 111.28C123.9 112.267 123.553 113.12 122.86 113.84C122.167 114.533 121.313 114.88 120.3 114.88ZM117.22 138V122.8H113.46V118.16H123.34V138H117.22ZM136.597 138.48C134.757 138.48 133.037 138.107 131.437 137.36C129.837 136.613 128.544 135.467 127.557 133.92C126.571 132.347 126.077 130.373 126.077 128C126.077 125.6 126.571 123.64 127.557 122.12C128.544 120.573 129.837 119.44 131.437 118.72C133.037 117.973 134.757 117.6 136.597 117.6C138.411 117.6 140.117 117.973 141.717 118.72C143.317 119.44 144.611 120.573 145.597 122.12C146.584 123.64 147.077 125.6 147.077 128C147.077 130.373 146.584 132.347 145.597 133.92C144.611 135.467 143.317 136.613 141.717 137.36C140.117 138.107 138.411 138.48 136.597 138.48ZM136.597 133.76C137.824 133.76 138.837 133.32 139.637 132.44C140.464 131.56 140.877 130.08 140.877 128C140.877 125.893 140.451 124.427 139.597 123.6C138.771 122.747 137.771 122.32 136.597 122.32C135.397 122.32 134.371 122.747 133.517 123.6C132.691 124.427 132.277 125.893 132.277 128C132.277 130.08 132.691 131.56 133.517 132.44C134.344 133.32 135.371 133.76 136.597 133.76ZM150.047 138V118.16H155.367L156.127 120.8C156.58 120.053 157.327 119.333 158.367 118.64C159.434 117.947 160.727 117.6 162.247 117.6C164.807 117.6 166.554 118.32 167.487 119.76C168.447 121.173 168.927 123.227 168.927 125.92V138H162.847V127.44C162.847 126.507 162.794 125.653 162.687 124.88C162.58 124.107 162.314 123.493 161.887 123.04C161.487 122.56 160.794 122.32 159.807 122.32C158.527 122.32 157.594 122.787 157.007 123.72C156.42 124.627 156.127 125.987 156.127 127.8V138H150.047ZM181.497 138.48C179.178 138.48 177.164 138.053 175.458 137.2C173.778 136.347 172.551 135.093 171.778 133.44L176.938 131.56C177.231 132.387 177.791 133.013 178.618 133.44C179.471 133.84 180.471 134.04 181.618 134.04C182.604 134.04 183.471 133.893 184.218 133.6C184.991 133.28 185.378 132.813 185.378 132.2C185.378 131.773 185.151 131.413 184.698 131.12C184.244 130.827 183.444 130.587 182.298 130.4L178.738 129.8C176.818 129.48 175.258 128.827 174.058 127.84C172.858 126.853 172.257 125.533 172.257 123.88C172.257 122.493 172.671 121.333 173.498 120.4C174.351 119.467 175.471 118.773 176.858 118.32C178.244 117.84 179.751 117.6 181.378 117.6C183.271 117.6 185.018 117.947 186.618 118.64C188.244 119.307 189.431 120.427 190.178 122L185.058 123.88C184.871 123.16 184.431 122.68 183.738 122.44C183.044 122.173 182.244 122.04 181.338 122.04C179.151 122.04 178.058 122.573 178.058 123.64C178.058 124.04 178.244 124.373 178.618 124.64C178.991 124.88 179.618 125.08 180.498 125.24L184.178 125.92C186.578 126.347 188.351 126.973 189.498 127.8C190.644 128.627 191.218 129.867 191.218 131.52C191.218 133.067 190.778 134.36 189.898 135.4C189.018 136.44 187.844 137.213 186.378 137.72C184.911 138.227 183.284 138.48 181.497 138.48Z" fill="#44D400"/>
</svg>
